%TF.GenerationSoftware,KiCad,Pcbnew,7.0.10*%
%TF.CreationDate,2024-04-02T20:17:41+05:30*%
%TF.ProjectId,blackpill-tft,626c6163-6b70-4696-9c6c-2d7466742e6b,rev?*%
%TF.SameCoordinates,Original*%
%TF.FileFunction,Paste,Top*%
%TF.FilePolarity,Positive*%
%FSLAX46Y46*%
G04 Gerber Fmt 4.6, Leading zero omitted, Abs format (unit mm)*
G04 Created by KiCad (PCBNEW 7.0.10) date 2024-04-02 20:17:41*
%MOMM*%
%LPD*%
G01*
G04 APERTURE LIST*
G04 Aperture macros list*
%AMRoundRect*
0 Rectangle with rounded corners*
0 $1 Rounding radius*
0 $2 $3 $4 $5 $6 $7 $8 $9 X,Y pos of 4 corners*
0 Add a 4 corners polygon primitive as box body*
4,1,4,$2,$3,$4,$5,$6,$7,$8,$9,$2,$3,0*
0 Add four circle primitives for the rounded corners*
1,1,$1+$1,$2,$3*
1,1,$1+$1,$4,$5*
1,1,$1+$1,$6,$7*
1,1,$1+$1,$8,$9*
0 Add four rect primitives between the rounded corners*
20,1,$1+$1,$2,$3,$4,$5,0*
20,1,$1+$1,$4,$5,$6,$7,0*
20,1,$1+$1,$6,$7,$8,$9,0*
20,1,$1+$1,$8,$9,$2,$3,0*%
%AMRotRect*
0 Rectangle, with rotation*
0 The origin of the aperture is its center*
0 $1 length*
0 $2 width*
0 $3 Rotation angle, in degrees counterclockwise*
0 Add horizontal line*
21,1,$1,$2,0,0,$3*%
G04 Aperture macros list end*
%ADD10R,1.500000X2.000000*%
%ADD11R,3.800000X2.000000*%
%ADD12RoundRect,0.250000X0.450000X-0.262500X0.450000X0.262500X-0.450000X0.262500X-0.450000X-0.262500X0*%
%ADD13RoundRect,0.250000X-0.450000X0.262500X-0.450000X-0.262500X0.450000X-0.262500X0.450000X0.262500X0*%
%ADD14RoundRect,0.243750X-0.456250X0.243750X-0.456250X-0.243750X0.456250X-0.243750X0.456250X0.243750X0*%
%ADD15RoundRect,0.250000X-0.475000X0.250000X-0.475000X-0.250000X0.475000X-0.250000X0.475000X0.250000X0*%
%ADD16O,1.600000X0.600000*%
%ADD17RoundRect,0.250000X0.475000X-0.250000X0.475000X0.250000X-0.475000X0.250000X-0.475000X-0.250000X0*%
%ADD18RoundRect,0.200000X-0.800000X0.200000X-0.800000X-0.200000X0.800000X-0.200000X0.800000X0.200000X0*%
%ADD19RoundRect,0.185850X-0.743600X0.185850X-0.743600X-0.185850X0.743600X-0.185850X0.743600X0.185850X0*%
%ADD20RoundRect,0.250000X0.159099X-0.512652X0.512652X-0.159099X-0.159099X0.512652X-0.512652X0.159099X0*%
%ADD21RotRect,0.700000X0.750000X225.000000*%
%ADD22RoundRect,0.200000X0.800000X-0.200000X0.800000X0.200000X-0.800000X0.200000X-0.800000X-0.200000X0*%
%ADD23RoundRect,0.185850X0.730900X-0.185850X0.730900X0.185850X-0.730900X0.185850X-0.730900X-0.185850X0*%
%ADD24RoundRect,0.243750X0.456250X-0.243750X0.456250X0.243750X-0.456250X0.243750X-0.456250X-0.243750X0*%
%ADD25R,0.600000X1.140000*%
%ADD26R,0.300000X1.140000*%
%ADD27RoundRect,0.242500X0.342947X0.000000X0.000000X0.342947X-0.342947X0.000000X0.000000X-0.342947X0*%
%ADD28RoundRect,0.075000X0.521491X-0.415425X-0.415425X0.521491X-0.521491X0.415425X0.415425X-0.521491X0*%
%ADD29RoundRect,0.075000X0.521491X0.415425X0.415425X0.521491X-0.521491X-0.415425X-0.415425X-0.521491X0*%
%ADD30RoundRect,0.250000X-0.262500X-0.450000X0.262500X-0.450000X0.262500X0.450000X-0.262500X0.450000X0*%
%ADD31RoundRect,0.250000X-0.159099X0.512652X-0.512652X0.159099X0.159099X-0.512652X0.512652X-0.159099X0*%
G04 APERTURE END LIST*
D10*
%TO.C,U2*%
X137720200Y-81673800D03*
X135420200Y-81673800D03*
D11*
X135420200Y-87973800D03*
D10*
X133120200Y-81673800D03*
%TD*%
D12*
%TO.C,R2*%
X121910000Y-77903400D03*
X121910000Y-76078400D03*
%TD*%
D13*
%TO.C,R4*%
X142075000Y-79821900D03*
X142075000Y-81646900D03*
%TD*%
D14*
%TO.C,D3*%
X163062800Y-125421700D03*
X163062800Y-127296700D03*
%TD*%
D15*
%TO.C,C8*%
X159938600Y-120303800D03*
X159938600Y-122203800D03*
%TD*%
D16*
%TO.C,U3*%
X168980000Y-119225000D03*
X168980000Y-120495000D03*
X168980000Y-121765000D03*
X168980000Y-123035000D03*
X176180000Y-123035000D03*
X176180000Y-121765000D03*
X176180000Y-120495000D03*
X176180000Y-119225000D03*
%TD*%
D15*
%TO.C,C9*%
X165760000Y-119950000D03*
X165760000Y-121850000D03*
%TD*%
D17*
%TO.C,C1*%
X135080000Y-75940000D03*
X135080000Y-74040000D03*
%TD*%
D18*
%TO.C,NRST1*%
X153144100Y-118687300D03*
D19*
X153103650Y-123946200D03*
%TD*%
D20*
%TO.C,C7*%
X153238249Y-107571751D03*
X154581751Y-106228249D03*
%TD*%
D13*
%TO.C,R1*%
X126400200Y-76671300D03*
X126400200Y-78496300D03*
%TD*%
D12*
%TO.C,R5*%
X158973400Y-132611300D03*
X158973400Y-130786300D03*
%TD*%
D21*
%TO.C,Y1*%
X149870850Y-107733744D03*
X148916256Y-106779150D03*
X148209150Y-107486256D03*
X149163744Y-108440850D03*
%TD*%
D22*
%TO.C,BOOT1*%
X145800000Y-123660000D03*
D23*
X145827750Y-118426500D03*
%TD*%
D17*
%TO.C,C3*%
X140100200Y-75773800D03*
X140100200Y-73873800D03*
%TD*%
%TO.C,C2*%
X130620200Y-76003800D03*
X130620200Y-74103800D03*
%TD*%
D14*
%TO.C,D4*%
X134330000Y-124065000D03*
X134330000Y-125940000D03*
%TD*%
D12*
%TO.C,R9*%
X138243500Y-131841400D03*
X138243500Y-130016400D03*
%TD*%
D24*
%TO.C,D1*%
X142862400Y-87782700D03*
X142862400Y-85907700D03*
%TD*%
D25*
%TO.C,J1*%
X133270200Y-67123800D03*
X132470200Y-67123800D03*
D26*
X131320200Y-67123800D03*
X130320200Y-67123800D03*
X129820200Y-67123800D03*
X128820200Y-67123800D03*
D25*
X126870200Y-67123800D03*
X127670200Y-67123800D03*
D26*
X128320200Y-67123800D03*
X129320200Y-67123800D03*
X130820200Y-67123800D03*
X131820200Y-67123800D03*
%TD*%
D27*
%TO.C,U1*%
X141472100Y-104938256D03*
X142320628Y-104089728D03*
X143169156Y-103241200D03*
X140623572Y-104089728D03*
X141472100Y-103241200D03*
X142320628Y-102392672D03*
X139775044Y-103241200D03*
X140623572Y-102392672D03*
X141472100Y-101544144D03*
D28*
X142470888Y-108129076D03*
X142824442Y-107775522D03*
X143177995Y-107421969D03*
X143531549Y-107068415D03*
X143885102Y-106714862D03*
X144238655Y-106361309D03*
X144592209Y-106007755D03*
X144945762Y-105654202D03*
X145299315Y-105300649D03*
X145652869Y-104947095D03*
X146006422Y-104593542D03*
X146359976Y-104239988D03*
D29*
X146359976Y-102242412D03*
X146006422Y-101888858D03*
X145652869Y-101535305D03*
X145299315Y-101181751D03*
X144945762Y-100828198D03*
X144592209Y-100474645D03*
X144238655Y-100121091D03*
X143885102Y-99767538D03*
X143531549Y-99413985D03*
X143177995Y-99060431D03*
X142824442Y-98706878D03*
X142470888Y-98353324D03*
D28*
X140473312Y-98353324D03*
X140119758Y-98706878D03*
X139766205Y-99060431D03*
X139412651Y-99413985D03*
X139059098Y-99767538D03*
X138705545Y-100121091D03*
X138351991Y-100474645D03*
X137998438Y-100828198D03*
X137644885Y-101181751D03*
X137291331Y-101535305D03*
X136937778Y-101888858D03*
X136584224Y-102242412D03*
D29*
X136584224Y-104239988D03*
X136937778Y-104593542D03*
X137291331Y-104947095D03*
X137644885Y-105300649D03*
X137998438Y-105654202D03*
X138351991Y-106007755D03*
X138705545Y-106361309D03*
X139059098Y-106714862D03*
X139412651Y-107068415D03*
X139766205Y-107421969D03*
X140119758Y-107775522D03*
X140473312Y-108129076D03*
%TD*%
D30*
%TO.C,R7*%
X139185200Y-119747300D03*
X141010200Y-119747300D03*
%TD*%
D31*
%TO.C,C5*%
X145521751Y-93448249D03*
X144178249Y-94791751D03*
%TD*%
D20*
%TO.C,C6*%
X149928249Y-112871751D03*
X151271751Y-111528249D03*
%TD*%
D12*
%TO.C,R3*%
X117260200Y-77926300D03*
X117260200Y-76101300D03*
%TD*%
D17*
%TO.C,C4*%
X145100200Y-75973800D03*
X145100200Y-74073800D03*
%TD*%
D30*
%TO.C,R8*%
X153565100Y-127527600D03*
X155390100Y-127527600D03*
%TD*%
M02*
