%TF.GenerationSoftware,KiCad,Pcbnew,7.0.10*%
%TF.CreationDate,2024-04-02T20:17:41+05:30*%
%TF.ProjectId,blackpill-tft,626c6163-6b70-4696-9c6c-2d7466742e6b,rev?*%
%TF.SameCoordinates,Original*%
%TF.FileFunction,Copper,L2,Bot*%
%TF.FilePolarity,Positive*%
%FSLAX46Y46*%
G04 Gerber Fmt 4.6, Leading zero omitted, Abs format (unit mm)*
G04 Created by KiCad (PCBNEW 7.0.10) date 2024-04-02 20:17:41*
%MOMM*%
%LPD*%
G01*
G04 APERTURE LIST*
G04 Aperture macros list*
%AMRoundRect*
0 Rectangle with rounded corners*
0 $1 Rounding radius*
0 $2 $3 $4 $5 $6 $7 $8 $9 X,Y pos of 4 corners*
0 Add a 4 corners polygon primitive as box body*
4,1,4,$2,$3,$4,$5,$6,$7,$8,$9,$2,$3,0*
0 Add four circle primitives for the rounded corners*
1,1,$1+$1,$2,$3*
1,1,$1+$1,$4,$5*
1,1,$1+$1,$6,$7*
1,1,$1+$1,$8,$9*
0 Add four rect primitives between the rounded corners*
20,1,$1+$1,$2,$3,$4,$5,0*
20,1,$1+$1,$4,$5,$6,$7,0*
20,1,$1+$1,$6,$7,$8,$9,0*
20,1,$1+$1,$8,$9,$2,$3,0*%
%AMRotRect*
0 Rectangle, with rotation*
0 The origin of the aperture is its center*
0 $1 length*
0 $2 width*
0 $3 Rotation angle, in degrees counterclockwise*
0 Add horizontal line*
21,1,$1,$2,0,0,$3*%
G04 Aperture macros list end*
%TA.AperFunction,ComponentPad*%
%ADD10R,1.700000X1.700000*%
%TD*%
%TA.AperFunction,ComponentPad*%
%ADD11O,1.700000X1.700000*%
%TD*%
%TA.AperFunction,ComponentPad*%
%ADD12O,0.900000X2.000000*%
%TD*%
%TA.AperFunction,ComponentPad*%
%ADD13O,0.900000X1.700000*%
%TD*%
%TA.AperFunction,SMDPad,CuDef*%
%ADD14RotRect,0.700000X0.750000X315.000000*%
%TD*%
%TA.AperFunction,SMDPad,CuDef*%
%ADD15RoundRect,0.250000X-0.475000X0.250000X-0.475000X-0.250000X0.475000X-0.250000X0.475000X0.250000X0*%
%TD*%
%TA.AperFunction,ViaPad*%
%ADD16C,0.800000*%
%TD*%
%TA.AperFunction,ViaPad*%
%ADD17C,1.500000*%
%TD*%
%TA.AperFunction,ViaPad*%
%ADD18C,1.000000*%
%TD*%
%TA.AperFunction,ViaPad*%
%ADD19C,0.600000*%
%TD*%
%TA.AperFunction,Conductor*%
%ADD20C,0.200000*%
%TD*%
%TA.AperFunction,Conductor*%
%ADD21C,0.500000*%
%TD*%
%TA.AperFunction,Conductor*%
%ADD22C,0.250000*%
%TD*%
%TA.AperFunction,Conductor*%
%ADD23C,0.300000*%
%TD*%
G04 APERTURE END LIST*
D10*
%TO.P,J3,1,Pin_1*%
%TO.N,+3.3V*%
X118880000Y-119400000D03*
D11*
%TO.P,J3,2,Pin_2*%
%TO.N,/SWDIO*%
X118880000Y-121940000D03*
%TO.P,J3,3,Pin_3*%
%TO.N,/SWCLK*%
X118880000Y-124480000D03*
%TO.P,J3,4,Pin_4*%
%TO.N,GND*%
X118880000Y-127020000D03*
%TD*%
D12*
%TO.P,J1,S1,SHIELD*%
%TO.N,GND*%
X134395200Y-66543800D03*
%TO.P,J1,S2,SHIELD*%
X125745200Y-66543800D03*
D13*
%TO.P,J1,S3,SHIELD*%
X134395200Y-62373800D03*
%TO.P,J1,S4,SHIELD*%
X125745200Y-62373800D03*
%TD*%
D10*
%TO.P,J6,1,Pin_1*%
%TO.N,/PA15*%
X122365000Y-140820000D03*
D11*
%TO.P,J6,2,Pin_2*%
%TO.N,/PB3*%
X124905000Y-140820000D03*
%TO.P,J6,3,Pin_3*%
%TO.N,/PB5*%
X127445000Y-140820000D03*
%TO.P,J6,4,Pin_4*%
%TO.N,GND*%
X129985000Y-140820000D03*
%TO.P,J6,5,Pin_5*%
%TO.N,/PB6*%
X132525000Y-140820000D03*
%TO.P,J6,6,Pin_6*%
%TO.N,GND*%
X135065000Y-140820000D03*
%TO.P,J6,7,Pin_7*%
%TO.N,+3.3V*%
X137605000Y-140820000D03*
%TD*%
D14*
%TO.P,Y2,1,1*%
%TO.N,/PC14*%
X143469150Y-111623744D03*
%TO.P,Y2,2,2*%
%TO.N,GND*%
X144423744Y-110669150D03*
%TO.P,Y2,3,3*%
%TO.N,/PC15*%
X145130850Y-111376256D03*
%TO.P,Y2,4,4*%
%TO.N,GND*%
X144176256Y-112330850D03*
%TD*%
D15*
%TO.P,C10,1*%
%TO.N,/PC14*%
X142420000Y-113420000D03*
%TO.P,C10,2*%
%TO.N,GND*%
X142420000Y-115320000D03*
%TD*%
D10*
%TO.P,J7,1,Pin_1*%
%TO.N,unconnected-(J7-Pin_1-Pad1)*%
X181280000Y-107620000D03*
D11*
%TO.P,J7,2,Pin_2*%
%TO.N,/PA5*%
X181280000Y-110160000D03*
%TO.P,J7,3,Pin_3*%
%TO.N,/PB1*%
X181280000Y-112700000D03*
%TO.P,J7,4,Pin_4*%
%TO.N,/PA7*%
X181280000Y-115240000D03*
%TO.P,J7,5,Pin_5*%
%TO.N,/PB4*%
X181280000Y-117780000D03*
%TO.P,J7,6,Pin_6*%
%TO.N,/PB0*%
X181280000Y-120320000D03*
%TD*%
D10*
%TO.P,TFT DISPLAY,1,Pin_1*%
%TO.N,+5V*%
X181300000Y-87300000D03*
D11*
%TO.P,TFT DISPLAY,2,Pin_2*%
%TO.N,GND*%
X181300000Y-89840000D03*
%TO.P,TFT DISPLAY,3,Pin_3*%
%TO.N,/PA4*%
X181300000Y-92380000D03*
%TO.P,TFT DISPLAY,4,Pin_4*%
%TO.N,/PA3*%
X181300000Y-94920000D03*
%TO.P,TFT DISPLAY,5,Pin_5*%
%TO.N,/PA2*%
X181300000Y-97460000D03*
%TO.P,TFT DISPLAY,6,Pin_6*%
%TO.N,/PA7*%
X181300000Y-100000000D03*
%TO.P,TFT DISPLAY,7,Pin_7*%
%TO.N,/PA5*%
X181300000Y-102540000D03*
%TO.P,TFT DISPLAY,8,Pin_8*%
%TO.N,/PA6*%
X181300000Y-105080000D03*
%TD*%
D10*
%TO.P,J5,1,Pin_1*%
%TO.N,GND*%
X157795000Y-70820000D03*
D11*
%TO.P,J5,2,Pin_2*%
%TO.N,+3.3V*%
X160335000Y-70820000D03*
%TO.P,J5,3,Pin_3*%
%TO.N,/PB10*%
X162875000Y-70820000D03*
%TO.P,J5,4,Pin_4*%
%TO.N,/PA0*%
X165415000Y-70820000D03*
%TO.P,J5,5,Pin_5*%
%TO.N,/PA1*%
X167955000Y-70820000D03*
%TD*%
D15*
%TO.P,C11,1*%
%TO.N,/PC15*%
X145950000Y-113310000D03*
%TO.P,C11,2*%
%TO.N,GND*%
X145950000Y-115210000D03*
%TD*%
D10*
%TO.P,J4,1,Pin_1*%
%TO.N,/PB12*%
X109240000Y-100000000D03*
D11*
%TO.P,J4,2,Pin_2*%
%TO.N,/PB15*%
X109240000Y-102540000D03*
%TO.P,J4,3,Pin_3*%
%TO.N,/PB14*%
X109240000Y-105080000D03*
%TO.P,J4,4,Pin_4*%
%TO.N,/PB13*%
X109240000Y-107620000D03*
%TD*%
D16*
%TO.N,GND*%
X146980000Y-106830000D03*
D17*
X136845200Y-67020000D03*
D18*
X138990000Y-70200000D03*
X142880000Y-118250000D03*
D17*
%TO.N,+5V*%
X139435000Y-66785000D03*
D18*
%TO.N,Net-(U1-PH0)*%
X150850000Y-106690000D03*
X147350000Y-110190000D03*
D16*
%TO.N,/PC14*%
X144320000Y-109140000D03*
%TO.N,/PC15*%
X146070000Y-110000000D03*
D18*
%TO.N,/PA2*%
X153683438Y-98543438D03*
%TO.N,/PA3*%
X155300000Y-95000000D03*
%TO.N,/PA4*%
X156260000Y-92540000D03*
%TO.N,/PA5*%
X149380000Y-99470000D03*
%TO.N,/PA6*%
X147100000Y-99740000D03*
%TO.N,+3.3V*%
X140520000Y-110570000D03*
X142520400Y-95889500D03*
%TO.N,/PA7*%
X149010000Y-97700000D03*
D16*
%TO.N,/PB0*%
X145120000Y-103260000D03*
%TO.N,/PB1*%
X162320000Y-85610000D03*
%TO.N,/PB4*%
X138800000Y-104210000D03*
D19*
%TO.N,/PB6*%
X132520000Y-137040000D03*
%TD*%
D20*
%TO.N,/PB6*%
X132525000Y-137045000D02*
X132520000Y-137040000D01*
X132525000Y-140820000D02*
X132525000Y-137045000D01*
D21*
%TO.N,GND*%
X129870000Y-137900000D02*
X129985000Y-138015000D01*
D22*
X144423744Y-110174176D02*
X146900000Y-107697920D01*
D23*
X144176256Y-114256256D02*
X145130000Y-115210000D01*
D21*
X118880000Y-127020000D02*
X129760000Y-137900000D01*
D23*
X142420000Y-117790000D02*
X142880000Y-118250000D01*
X145950000Y-115210000D02*
X142530000Y-115210000D01*
X144176256Y-112330850D02*
X144176256Y-114256256D01*
X142420000Y-115320000D02*
X142420000Y-117790000D01*
D21*
X129985000Y-138015000D02*
X129985000Y-140820000D01*
X129760000Y-137900000D02*
X129870000Y-137900000D01*
X136845200Y-68055200D02*
X136845200Y-67020000D01*
D22*
X146900000Y-107697920D02*
X146900000Y-106640000D01*
X144423744Y-110669150D02*
X144423744Y-110174176D01*
D23*
X142530000Y-115210000D02*
X142420000Y-115320000D01*
D21*
X138990000Y-70200000D02*
X136845200Y-68055200D01*
D23*
X145130000Y-115210000D02*
X145950000Y-115210000D01*
D22*
%TO.N,Net-(U1-PH0)*%
X150850000Y-106707300D02*
X147367300Y-110190000D01*
X147367300Y-110190000D02*
X147350000Y-110190000D01*
X150850000Y-106690000D02*
X150850000Y-106707300D01*
D23*
%TO.N,/PC14*%
X142886256Y-111623744D02*
X142390000Y-112120000D01*
X142420000Y-112150000D02*
X142420000Y-113420000D01*
X143040000Y-111194594D02*
X143469150Y-111623744D01*
X143040000Y-110100000D02*
X143040000Y-111194594D01*
X142390000Y-112120000D02*
X142420000Y-112150000D01*
X144380000Y-109080000D02*
X144320000Y-109140000D01*
X144000000Y-109140000D02*
X143040000Y-110100000D01*
X144320000Y-109140000D02*
X144000000Y-109140000D01*
X143469150Y-111623744D02*
X142886256Y-111623744D01*
%TO.N,/PC15*%
X145700000Y-111945406D02*
X145700000Y-112220000D01*
X146070000Y-110437106D02*
X145130850Y-111376256D01*
X146070000Y-109860000D02*
X146020000Y-109810000D01*
X146070000Y-109917716D02*
X146070000Y-110000000D01*
X145700000Y-112220000D02*
X145950000Y-112470000D01*
X146070000Y-110000000D02*
X146070000Y-110437106D01*
X145950000Y-112470000D02*
X145950000Y-113310000D01*
X146070000Y-110000000D02*
X146070000Y-109860000D01*
X145130850Y-111376256D02*
X145700000Y-111945406D01*
X145962284Y-109810000D02*
X146070000Y-109917716D01*
D22*
%TO.N,/PA2*%
X153683438Y-98543438D02*
X154766876Y-97460000D01*
X154766876Y-97460000D02*
X181300000Y-97460000D01*
%TO.N,/PA3*%
X155380000Y-94920000D02*
X181300000Y-94920000D01*
X155300000Y-95000000D02*
X155380000Y-94920000D01*
%TO.N,/PA4*%
X156260000Y-92540000D02*
X156420000Y-92380000D01*
X156420000Y-92380000D02*
X181300000Y-92380000D01*
%TO.N,/PA5*%
X152460000Y-102540000D02*
X181300000Y-102540000D01*
X149390000Y-99470000D02*
X152460000Y-102540000D01*
X149380000Y-99470000D02*
X149390000Y-99470000D01*
%TO.N,/PA6*%
X147100000Y-99740000D02*
X147446100Y-99740000D01*
X151596100Y-103890000D02*
X180110000Y-103890000D01*
X180110000Y-103890000D02*
X181300000Y-105080000D01*
X147446100Y-99740000D02*
X151596100Y-103890000D01*
D21*
%TO.N,+3.3V*%
X135940000Y-119270000D02*
X135940000Y-133920000D01*
X135940000Y-115130000D02*
X135940000Y-119270000D01*
D22*
X135810000Y-119400000D02*
X135940000Y-119270000D01*
D21*
X142520400Y-95889500D02*
X140473300Y-97936600D01*
D22*
X160335000Y-70820000D02*
X160335000Y-70495000D01*
D21*
X137490000Y-135470000D02*
X137490000Y-137900000D01*
D22*
X155800000Y-68570000D02*
X142520400Y-81849600D01*
D21*
X137605000Y-138015000D02*
X137605000Y-140820000D01*
D22*
X118880000Y-119400000D02*
X135810000Y-119400000D01*
X160335000Y-70495000D02*
X158410000Y-68570000D01*
D21*
X140473300Y-110596700D02*
X135940000Y-115130000D01*
X137490000Y-137900000D02*
X137605000Y-138015000D01*
X140473300Y-97936600D02*
X140473300Y-110596700D01*
D22*
X158410000Y-68570000D02*
X155800000Y-68570000D01*
X142520400Y-81849600D02*
X142520400Y-95889500D01*
D21*
X135940000Y-133920000D02*
X137490000Y-135470000D01*
D22*
%TO.N,/PA7*%
X149010000Y-97700000D02*
X151310000Y-100000000D01*
X151310000Y-100000000D02*
X181300000Y-100000000D01*
D23*
%TO.N,/PB0*%
X170025000Y-105555000D02*
X178490000Y-114020000D01*
X147415000Y-105555000D02*
X170025000Y-105555000D01*
X182500000Y-119100000D02*
X181280000Y-120320000D01*
X178490000Y-114020000D02*
X181757057Y-114020000D01*
X182500000Y-114762943D02*
X182500000Y-119100000D01*
X145120000Y-103260000D02*
X147415000Y-105555000D01*
X181757057Y-114020000D02*
X182500000Y-114762943D01*
%TO.N,/PB1*%
X184610000Y-109370000D02*
X184610000Y-84610000D01*
X170490000Y-82370000D02*
X165500000Y-82370000D01*
X181280000Y-112700000D02*
X184610000Y-109370000D01*
X184610000Y-84610000D02*
X182370000Y-82370000D01*
X182370000Y-82370000D02*
X170490000Y-82370000D01*
X170490000Y-82370000D02*
X170370000Y-82370000D01*
X162320000Y-85550000D02*
X162320000Y-85610000D01*
X162260000Y-85610000D02*
X162390000Y-85480000D01*
X165500000Y-82370000D02*
X162320000Y-85550000D01*
X162320000Y-85610000D02*
X162260000Y-85610000D01*
%TO.N,/PB4*%
X138770000Y-104240000D02*
X138800000Y-104210000D01*
X157040000Y-142020000D02*
X137107943Y-142020000D01*
X131640000Y-104240000D02*
X138770000Y-104240000D01*
X138830000Y-104240000D02*
X138840000Y-104240000D01*
X137107943Y-142020000D02*
X136405000Y-141317057D01*
X117680000Y-120600000D02*
X117680000Y-118200000D01*
X117680000Y-118200000D02*
X131640000Y-104240000D01*
X136405000Y-141317057D02*
X136405000Y-136925000D01*
X120080000Y-120600000D02*
X117680000Y-120600000D01*
X138800000Y-104210000D02*
X138830000Y-104240000D01*
X181280000Y-117780000D02*
X157040000Y-142020000D01*
X136405000Y-136925000D02*
X120080000Y-120600000D01*
%TD*%
M02*
