%TF.GenerationSoftware,KiCad,Pcbnew,7.0.10*%
%TF.CreationDate,2024-04-02T20:17:41+05:30*%
%TF.ProjectId,blackpill-tft,626c6163-6b70-4696-9c6c-2d7466742e6b,rev?*%
%TF.SameCoordinates,Original*%
%TF.FileFunction,Legend,Bot*%
%TF.FilePolarity,Positive*%
%FSLAX46Y46*%
G04 Gerber Fmt 4.6, Leading zero omitted, Abs format (unit mm)*
G04 Created by KiCad (PCBNEW 7.0.10) date 2024-04-02 20:17:41*
%MOMM*%
%LPD*%
G01*
G04 APERTURE LIST*
%ADD10C,0.125000*%
%ADD11C,0.150000*%
%ADD12C,0.120000*%
%ADD13C,0.200000*%
G04 APERTURE END LIST*
D10*
X120428902Y-142882166D02*
X120428902Y-143582166D01*
X120428902Y-143582166D02*
X120695569Y-143582166D01*
X120695569Y-143582166D02*
X120762236Y-143548833D01*
X120762236Y-143548833D02*
X120795569Y-143515500D01*
X120795569Y-143515500D02*
X120828902Y-143448833D01*
X120828902Y-143448833D02*
X120828902Y-143348833D01*
X120828902Y-143348833D02*
X120795569Y-143282166D01*
X120795569Y-143282166D02*
X120762236Y-143248833D01*
X120762236Y-143248833D02*
X120695569Y-143215500D01*
X120695569Y-143215500D02*
X120428902Y-143215500D01*
X121095569Y-143082166D02*
X121428902Y-143082166D01*
X121028902Y-142882166D02*
X121262236Y-143582166D01*
X121262236Y-143582166D02*
X121495569Y-142882166D01*
X122095569Y-142882166D02*
X121695569Y-142882166D01*
X121895569Y-142882166D02*
X121895569Y-143582166D01*
X121895569Y-143582166D02*
X121828902Y-143482166D01*
X121828902Y-143482166D02*
X121762236Y-143415500D01*
X121762236Y-143415500D02*
X121695569Y-143382166D01*
X122728903Y-143582166D02*
X122395569Y-143582166D01*
X122395569Y-143582166D02*
X122362236Y-143248833D01*
X122362236Y-143248833D02*
X122395569Y-143282166D01*
X122395569Y-143282166D02*
X122462236Y-143315500D01*
X122462236Y-143315500D02*
X122628903Y-143315500D01*
X122628903Y-143315500D02*
X122695569Y-143282166D01*
X122695569Y-143282166D02*
X122728903Y-143248833D01*
X122728903Y-143248833D02*
X122762236Y-143182166D01*
X122762236Y-143182166D02*
X122762236Y-143015500D01*
X122762236Y-143015500D02*
X122728903Y-142948833D01*
X122728903Y-142948833D02*
X122695569Y-142915500D01*
X122695569Y-142915500D02*
X122628903Y-142882166D01*
X122628903Y-142882166D02*
X122462236Y-142882166D01*
X122462236Y-142882166D02*
X122395569Y-142915500D01*
X122395569Y-142915500D02*
X122362236Y-142948833D01*
X123595569Y-142882166D02*
X123595569Y-143582166D01*
X123595569Y-143582166D02*
X123862236Y-143582166D01*
X123862236Y-143582166D02*
X123928903Y-143548833D01*
X123928903Y-143548833D02*
X123962236Y-143515500D01*
X123962236Y-143515500D02*
X123995569Y-143448833D01*
X123995569Y-143448833D02*
X123995569Y-143348833D01*
X123995569Y-143348833D02*
X123962236Y-143282166D01*
X123962236Y-143282166D02*
X123928903Y-143248833D01*
X123928903Y-143248833D02*
X123862236Y-143215500D01*
X123862236Y-143215500D02*
X123595569Y-143215500D01*
X124528903Y-143248833D02*
X124628903Y-143215500D01*
X124628903Y-143215500D02*
X124662236Y-143182166D01*
X124662236Y-143182166D02*
X124695569Y-143115500D01*
X124695569Y-143115500D02*
X124695569Y-143015500D01*
X124695569Y-143015500D02*
X124662236Y-142948833D01*
X124662236Y-142948833D02*
X124628903Y-142915500D01*
X124628903Y-142915500D02*
X124562236Y-142882166D01*
X124562236Y-142882166D02*
X124295569Y-142882166D01*
X124295569Y-142882166D02*
X124295569Y-143582166D01*
X124295569Y-143582166D02*
X124528903Y-143582166D01*
X124528903Y-143582166D02*
X124595569Y-143548833D01*
X124595569Y-143548833D02*
X124628903Y-143515500D01*
X124628903Y-143515500D02*
X124662236Y-143448833D01*
X124662236Y-143448833D02*
X124662236Y-143382166D01*
X124662236Y-143382166D02*
X124628903Y-143315500D01*
X124628903Y-143315500D02*
X124595569Y-143282166D01*
X124595569Y-143282166D02*
X124528903Y-143248833D01*
X124528903Y-143248833D02*
X124295569Y-143248833D01*
X124928903Y-143582166D02*
X125362236Y-143582166D01*
X125362236Y-143582166D02*
X125128903Y-143315500D01*
X125128903Y-143315500D02*
X125228903Y-143315500D01*
X125228903Y-143315500D02*
X125295569Y-143282166D01*
X125295569Y-143282166D02*
X125328903Y-143248833D01*
X125328903Y-143248833D02*
X125362236Y-143182166D01*
X125362236Y-143182166D02*
X125362236Y-143015500D01*
X125362236Y-143015500D02*
X125328903Y-142948833D01*
X125328903Y-142948833D02*
X125295569Y-142915500D01*
X125295569Y-142915500D02*
X125228903Y-142882166D01*
X125228903Y-142882166D02*
X125028903Y-142882166D01*
X125028903Y-142882166D02*
X124962236Y-142915500D01*
X124962236Y-142915500D02*
X124928903Y-142948833D01*
X126195569Y-142882166D02*
X126195569Y-143582166D01*
X126195569Y-143582166D02*
X126462236Y-143582166D01*
X126462236Y-143582166D02*
X126528903Y-143548833D01*
X126528903Y-143548833D02*
X126562236Y-143515500D01*
X126562236Y-143515500D02*
X126595569Y-143448833D01*
X126595569Y-143448833D02*
X126595569Y-143348833D01*
X126595569Y-143348833D02*
X126562236Y-143282166D01*
X126562236Y-143282166D02*
X126528903Y-143248833D01*
X126528903Y-143248833D02*
X126462236Y-143215500D01*
X126462236Y-143215500D02*
X126195569Y-143215500D01*
X127128903Y-143248833D02*
X127228903Y-143215500D01*
X127228903Y-143215500D02*
X127262236Y-143182166D01*
X127262236Y-143182166D02*
X127295569Y-143115500D01*
X127295569Y-143115500D02*
X127295569Y-143015500D01*
X127295569Y-143015500D02*
X127262236Y-142948833D01*
X127262236Y-142948833D02*
X127228903Y-142915500D01*
X127228903Y-142915500D02*
X127162236Y-142882166D01*
X127162236Y-142882166D02*
X126895569Y-142882166D01*
X126895569Y-142882166D02*
X126895569Y-143582166D01*
X126895569Y-143582166D02*
X127128903Y-143582166D01*
X127128903Y-143582166D02*
X127195569Y-143548833D01*
X127195569Y-143548833D02*
X127228903Y-143515500D01*
X127228903Y-143515500D02*
X127262236Y-143448833D01*
X127262236Y-143448833D02*
X127262236Y-143382166D01*
X127262236Y-143382166D02*
X127228903Y-143315500D01*
X127228903Y-143315500D02*
X127195569Y-143282166D01*
X127195569Y-143282166D02*
X127128903Y-143248833D01*
X127128903Y-143248833D02*
X126895569Y-143248833D01*
X127928903Y-143582166D02*
X127595569Y-143582166D01*
X127595569Y-143582166D02*
X127562236Y-143248833D01*
X127562236Y-143248833D02*
X127595569Y-143282166D01*
X127595569Y-143282166D02*
X127662236Y-143315500D01*
X127662236Y-143315500D02*
X127828903Y-143315500D01*
X127828903Y-143315500D02*
X127895569Y-143282166D01*
X127895569Y-143282166D02*
X127928903Y-143248833D01*
X127928903Y-143248833D02*
X127962236Y-143182166D01*
X127962236Y-143182166D02*
X127962236Y-143015500D01*
X127962236Y-143015500D02*
X127928903Y-142948833D01*
X127928903Y-142948833D02*
X127895569Y-142915500D01*
X127895569Y-142915500D02*
X127828903Y-142882166D01*
X127828903Y-142882166D02*
X127662236Y-142882166D01*
X127662236Y-142882166D02*
X127595569Y-142915500D01*
X127595569Y-142915500D02*
X127562236Y-142948833D01*
X129162236Y-143548833D02*
X129095569Y-143582166D01*
X129095569Y-143582166D02*
X128995569Y-143582166D01*
X128995569Y-143582166D02*
X128895569Y-143548833D01*
X128895569Y-143548833D02*
X128828903Y-143482166D01*
X128828903Y-143482166D02*
X128795569Y-143415500D01*
X128795569Y-143415500D02*
X128762236Y-143282166D01*
X128762236Y-143282166D02*
X128762236Y-143182166D01*
X128762236Y-143182166D02*
X128795569Y-143048833D01*
X128795569Y-143048833D02*
X128828903Y-142982166D01*
X128828903Y-142982166D02*
X128895569Y-142915500D01*
X128895569Y-142915500D02*
X128995569Y-142882166D01*
X128995569Y-142882166D02*
X129062236Y-142882166D01*
X129062236Y-142882166D02*
X129162236Y-142915500D01*
X129162236Y-142915500D02*
X129195569Y-142948833D01*
X129195569Y-142948833D02*
X129195569Y-143182166D01*
X129195569Y-143182166D02*
X129062236Y-143182166D01*
X129495569Y-142882166D02*
X129495569Y-143582166D01*
X129495569Y-143582166D02*
X129895569Y-142882166D01*
X129895569Y-142882166D02*
X129895569Y-143582166D01*
X130228902Y-142882166D02*
X130228902Y-143582166D01*
X130228902Y-143582166D02*
X130395569Y-143582166D01*
X130395569Y-143582166D02*
X130495569Y-143548833D01*
X130495569Y-143548833D02*
X130562236Y-143482166D01*
X130562236Y-143482166D02*
X130595569Y-143415500D01*
X130595569Y-143415500D02*
X130628902Y-143282166D01*
X130628902Y-143282166D02*
X130628902Y-143182166D01*
X130628902Y-143182166D02*
X130595569Y-143048833D01*
X130595569Y-143048833D02*
X130562236Y-142982166D01*
X130562236Y-142982166D02*
X130495569Y-142915500D01*
X130495569Y-142915500D02*
X130395569Y-142882166D01*
X130395569Y-142882166D02*
X130228902Y-142882166D01*
X131462235Y-142882166D02*
X131462235Y-143582166D01*
X131462235Y-143582166D02*
X131728902Y-143582166D01*
X131728902Y-143582166D02*
X131795569Y-143548833D01*
X131795569Y-143548833D02*
X131828902Y-143515500D01*
X131828902Y-143515500D02*
X131862235Y-143448833D01*
X131862235Y-143448833D02*
X131862235Y-143348833D01*
X131862235Y-143348833D02*
X131828902Y-143282166D01*
X131828902Y-143282166D02*
X131795569Y-143248833D01*
X131795569Y-143248833D02*
X131728902Y-143215500D01*
X131728902Y-143215500D02*
X131462235Y-143215500D01*
X132395569Y-143248833D02*
X132495569Y-143215500D01*
X132495569Y-143215500D02*
X132528902Y-143182166D01*
X132528902Y-143182166D02*
X132562235Y-143115500D01*
X132562235Y-143115500D02*
X132562235Y-143015500D01*
X132562235Y-143015500D02*
X132528902Y-142948833D01*
X132528902Y-142948833D02*
X132495569Y-142915500D01*
X132495569Y-142915500D02*
X132428902Y-142882166D01*
X132428902Y-142882166D02*
X132162235Y-142882166D01*
X132162235Y-142882166D02*
X132162235Y-143582166D01*
X132162235Y-143582166D02*
X132395569Y-143582166D01*
X132395569Y-143582166D02*
X132462235Y-143548833D01*
X132462235Y-143548833D02*
X132495569Y-143515500D01*
X132495569Y-143515500D02*
X132528902Y-143448833D01*
X132528902Y-143448833D02*
X132528902Y-143382166D01*
X132528902Y-143382166D02*
X132495569Y-143315500D01*
X132495569Y-143315500D02*
X132462235Y-143282166D01*
X132462235Y-143282166D02*
X132395569Y-143248833D01*
X132395569Y-143248833D02*
X132162235Y-143248833D01*
X133162235Y-143582166D02*
X133028902Y-143582166D01*
X133028902Y-143582166D02*
X132962235Y-143548833D01*
X132962235Y-143548833D02*
X132928902Y-143515500D01*
X132928902Y-143515500D02*
X132862235Y-143415500D01*
X132862235Y-143415500D02*
X132828902Y-143282166D01*
X132828902Y-143282166D02*
X132828902Y-143015500D01*
X132828902Y-143015500D02*
X132862235Y-142948833D01*
X132862235Y-142948833D02*
X132895569Y-142915500D01*
X132895569Y-142915500D02*
X132962235Y-142882166D01*
X132962235Y-142882166D02*
X133095569Y-142882166D01*
X133095569Y-142882166D02*
X133162235Y-142915500D01*
X133162235Y-142915500D02*
X133195569Y-142948833D01*
X133195569Y-142948833D02*
X133228902Y-143015500D01*
X133228902Y-143015500D02*
X133228902Y-143182166D01*
X133228902Y-143182166D02*
X133195569Y-143248833D01*
X133195569Y-143248833D02*
X133162235Y-143282166D01*
X133162235Y-143282166D02*
X133095569Y-143315500D01*
X133095569Y-143315500D02*
X132962235Y-143315500D01*
X132962235Y-143315500D02*
X132895569Y-143282166D01*
X132895569Y-143282166D02*
X132862235Y-143248833D01*
X132862235Y-143248833D02*
X132828902Y-143182166D01*
X134428902Y-143548833D02*
X134362235Y-143582166D01*
X134362235Y-143582166D02*
X134262235Y-143582166D01*
X134262235Y-143582166D02*
X134162235Y-143548833D01*
X134162235Y-143548833D02*
X134095569Y-143482166D01*
X134095569Y-143482166D02*
X134062235Y-143415500D01*
X134062235Y-143415500D02*
X134028902Y-143282166D01*
X134028902Y-143282166D02*
X134028902Y-143182166D01*
X134028902Y-143182166D02*
X134062235Y-143048833D01*
X134062235Y-143048833D02*
X134095569Y-142982166D01*
X134095569Y-142982166D02*
X134162235Y-142915500D01*
X134162235Y-142915500D02*
X134262235Y-142882166D01*
X134262235Y-142882166D02*
X134328902Y-142882166D01*
X134328902Y-142882166D02*
X134428902Y-142915500D01*
X134428902Y-142915500D02*
X134462235Y-142948833D01*
X134462235Y-142948833D02*
X134462235Y-143182166D01*
X134462235Y-143182166D02*
X134328902Y-143182166D01*
X134762235Y-142882166D02*
X134762235Y-143582166D01*
X134762235Y-143582166D02*
X135162235Y-142882166D01*
X135162235Y-142882166D02*
X135162235Y-143582166D01*
X135495568Y-142882166D02*
X135495568Y-143582166D01*
X135495568Y-143582166D02*
X135662235Y-143582166D01*
X135662235Y-143582166D02*
X135762235Y-143548833D01*
X135762235Y-143548833D02*
X135828902Y-143482166D01*
X135828902Y-143482166D02*
X135862235Y-143415500D01*
X135862235Y-143415500D02*
X135895568Y-143282166D01*
X135895568Y-143282166D02*
X135895568Y-143182166D01*
X135895568Y-143182166D02*
X135862235Y-143048833D01*
X135862235Y-143048833D02*
X135828902Y-142982166D01*
X135828902Y-142982166D02*
X135762235Y-142915500D01*
X135762235Y-142915500D02*
X135662235Y-142882166D01*
X135662235Y-142882166D02*
X135495568Y-142882166D01*
X136728901Y-143148833D02*
X137262235Y-143148833D01*
X136995568Y-142882166D02*
X136995568Y-143415500D01*
X137528902Y-143582166D02*
X137962235Y-143582166D01*
X137962235Y-143582166D02*
X137728902Y-143315500D01*
X137728902Y-143315500D02*
X137828902Y-143315500D01*
X137828902Y-143315500D02*
X137895568Y-143282166D01*
X137895568Y-143282166D02*
X137928902Y-143248833D01*
X137928902Y-143248833D02*
X137962235Y-143182166D01*
X137962235Y-143182166D02*
X137962235Y-143015500D01*
X137962235Y-143015500D02*
X137928902Y-142948833D01*
X137928902Y-142948833D02*
X137895568Y-142915500D01*
X137895568Y-142915500D02*
X137828902Y-142882166D01*
X137828902Y-142882166D02*
X137628902Y-142882166D01*
X137628902Y-142882166D02*
X137562235Y-142915500D01*
X137562235Y-142915500D02*
X137528902Y-142948833D01*
X138262235Y-142948833D02*
X138295569Y-142915500D01*
X138295569Y-142915500D02*
X138262235Y-142882166D01*
X138262235Y-142882166D02*
X138228902Y-142915500D01*
X138228902Y-142915500D02*
X138262235Y-142948833D01*
X138262235Y-142948833D02*
X138262235Y-142882166D01*
X138528902Y-143582166D02*
X138962235Y-143582166D01*
X138962235Y-143582166D02*
X138728902Y-143315500D01*
X138728902Y-143315500D02*
X138828902Y-143315500D01*
X138828902Y-143315500D02*
X138895568Y-143282166D01*
X138895568Y-143282166D02*
X138928902Y-143248833D01*
X138928902Y-143248833D02*
X138962235Y-143182166D01*
X138962235Y-143182166D02*
X138962235Y-143015500D01*
X138962235Y-143015500D02*
X138928902Y-142948833D01*
X138928902Y-142948833D02*
X138895568Y-142915500D01*
X138895568Y-142915500D02*
X138828902Y-142882166D01*
X138828902Y-142882166D02*
X138628902Y-142882166D01*
X138628902Y-142882166D02*
X138562235Y-142915500D01*
X138562235Y-142915500D02*
X138528902Y-142948833D01*
X139162235Y-143582166D02*
X139395569Y-142882166D01*
X139395569Y-142882166D02*
X139628902Y-143582166D01*
D11*
X156698207Y-67160180D02*
X156364874Y-67636371D01*
X156126779Y-67160180D02*
X156126779Y-68160180D01*
X156126779Y-68160180D02*
X156507731Y-68160180D01*
X156507731Y-68160180D02*
X156602969Y-68112561D01*
X156602969Y-68112561D02*
X156650588Y-68064942D01*
X156650588Y-68064942D02*
X156698207Y-67969704D01*
X156698207Y-67969704D02*
X156698207Y-67826847D01*
X156698207Y-67826847D02*
X156650588Y-67731609D01*
X156650588Y-67731609D02*
X156602969Y-67683990D01*
X156602969Y-67683990D02*
X156507731Y-67636371D01*
X156507731Y-67636371D02*
X156126779Y-67636371D01*
X157317255Y-68160180D02*
X157507731Y-68160180D01*
X157507731Y-68160180D02*
X157602969Y-68112561D01*
X157602969Y-68112561D02*
X157698207Y-68017323D01*
X157698207Y-68017323D02*
X157745826Y-67826847D01*
X157745826Y-67826847D02*
X157745826Y-67493514D01*
X157745826Y-67493514D02*
X157698207Y-67303038D01*
X157698207Y-67303038D02*
X157602969Y-67207800D01*
X157602969Y-67207800D02*
X157507731Y-67160180D01*
X157507731Y-67160180D02*
X157317255Y-67160180D01*
X157317255Y-67160180D02*
X157222017Y-67207800D01*
X157222017Y-67207800D02*
X157126779Y-67303038D01*
X157126779Y-67303038D02*
X157079160Y-67493514D01*
X157079160Y-67493514D02*
X157079160Y-67826847D01*
X157079160Y-67826847D02*
X157126779Y-68017323D01*
X157126779Y-68017323D02*
X157222017Y-68112561D01*
X157222017Y-68112561D02*
X157317255Y-68160180D01*
X158031541Y-68160180D02*
X158602969Y-68160180D01*
X158317255Y-67160180D02*
X158317255Y-68160180D01*
X158888684Y-67445895D02*
X159364874Y-67445895D01*
X158793446Y-67160180D02*
X159126779Y-68160180D01*
X159126779Y-68160180D02*
X159460112Y-67160180D01*
X160364874Y-67160180D02*
X160031541Y-67636371D01*
X159793446Y-67160180D02*
X159793446Y-68160180D01*
X159793446Y-68160180D02*
X160174398Y-68160180D01*
X160174398Y-68160180D02*
X160269636Y-68112561D01*
X160269636Y-68112561D02*
X160317255Y-68064942D01*
X160317255Y-68064942D02*
X160364874Y-67969704D01*
X160364874Y-67969704D02*
X160364874Y-67826847D01*
X160364874Y-67826847D02*
X160317255Y-67731609D01*
X160317255Y-67731609D02*
X160269636Y-67683990D01*
X160269636Y-67683990D02*
X160174398Y-67636371D01*
X160174398Y-67636371D02*
X159793446Y-67636371D01*
X160983922Y-67636371D02*
X160983922Y-67160180D01*
X160650589Y-68160180D02*
X160983922Y-67636371D01*
X160983922Y-67636371D02*
X161317255Y-68160180D01*
X162412494Y-67683990D02*
X162745827Y-67683990D01*
X162888684Y-67160180D02*
X162412494Y-67160180D01*
X162412494Y-67160180D02*
X162412494Y-68160180D01*
X162412494Y-68160180D02*
X162888684Y-68160180D01*
X163317256Y-67160180D02*
X163317256Y-68160180D01*
X163317256Y-68160180D02*
X163888684Y-67160180D01*
X163888684Y-67160180D02*
X163888684Y-68160180D01*
X164936303Y-67255419D02*
X164888684Y-67207800D01*
X164888684Y-67207800D02*
X164745827Y-67160180D01*
X164745827Y-67160180D02*
X164650589Y-67160180D01*
X164650589Y-67160180D02*
X164507732Y-67207800D01*
X164507732Y-67207800D02*
X164412494Y-67303038D01*
X164412494Y-67303038D02*
X164364875Y-67398276D01*
X164364875Y-67398276D02*
X164317256Y-67588752D01*
X164317256Y-67588752D02*
X164317256Y-67731609D01*
X164317256Y-67731609D02*
X164364875Y-67922085D01*
X164364875Y-67922085D02*
X164412494Y-68017323D01*
X164412494Y-68017323D02*
X164507732Y-68112561D01*
X164507732Y-68112561D02*
X164650589Y-68160180D01*
X164650589Y-68160180D02*
X164745827Y-68160180D01*
X164745827Y-68160180D02*
X164888684Y-68112561D01*
X164888684Y-68112561D02*
X164936303Y-68064942D01*
X165555351Y-68160180D02*
X165745827Y-68160180D01*
X165745827Y-68160180D02*
X165841065Y-68112561D01*
X165841065Y-68112561D02*
X165936303Y-68017323D01*
X165936303Y-68017323D02*
X165983922Y-67826847D01*
X165983922Y-67826847D02*
X165983922Y-67493514D01*
X165983922Y-67493514D02*
X165936303Y-67303038D01*
X165936303Y-67303038D02*
X165841065Y-67207800D01*
X165841065Y-67207800D02*
X165745827Y-67160180D01*
X165745827Y-67160180D02*
X165555351Y-67160180D01*
X165555351Y-67160180D02*
X165460113Y-67207800D01*
X165460113Y-67207800D02*
X165364875Y-67303038D01*
X165364875Y-67303038D02*
X165317256Y-67493514D01*
X165317256Y-67493514D02*
X165317256Y-67826847D01*
X165317256Y-67826847D02*
X165364875Y-68017323D01*
X165364875Y-68017323D02*
X165460113Y-68112561D01*
X165460113Y-68112561D02*
X165555351Y-68160180D01*
X166412494Y-67160180D02*
X166412494Y-68160180D01*
X166412494Y-68160180D02*
X166650589Y-68160180D01*
X166650589Y-68160180D02*
X166793446Y-68112561D01*
X166793446Y-68112561D02*
X166888684Y-68017323D01*
X166888684Y-68017323D02*
X166936303Y-67922085D01*
X166936303Y-67922085D02*
X166983922Y-67731609D01*
X166983922Y-67731609D02*
X166983922Y-67588752D01*
X166983922Y-67588752D02*
X166936303Y-67398276D01*
X166936303Y-67398276D02*
X166888684Y-67303038D01*
X166888684Y-67303038D02*
X166793446Y-67207800D01*
X166793446Y-67207800D02*
X166650589Y-67160180D01*
X166650589Y-67160180D02*
X166412494Y-67160180D01*
X167412494Y-67683990D02*
X167745827Y-67683990D01*
X167888684Y-67160180D02*
X167412494Y-67160180D01*
X167412494Y-67160180D02*
X167412494Y-68160180D01*
X167412494Y-68160180D02*
X167888684Y-68160180D01*
X168888684Y-67160180D02*
X168555351Y-67636371D01*
X168317256Y-67160180D02*
X168317256Y-68160180D01*
X168317256Y-68160180D02*
X168698208Y-68160180D01*
X168698208Y-68160180D02*
X168793446Y-68112561D01*
X168793446Y-68112561D02*
X168841065Y-68064942D01*
X168841065Y-68064942D02*
X168888684Y-67969704D01*
X168888684Y-67969704D02*
X168888684Y-67826847D01*
X168888684Y-67826847D02*
X168841065Y-67731609D01*
X168841065Y-67731609D02*
X168793446Y-67683990D01*
X168793446Y-67683990D02*
X168698208Y-67636371D01*
X168698208Y-67636371D02*
X168317256Y-67636371D01*
X119134819Y-140446666D02*
X119849104Y-140446666D01*
X119849104Y-140446666D02*
X119991961Y-140399047D01*
X119991961Y-140399047D02*
X120087200Y-140303809D01*
X120087200Y-140303809D02*
X120134819Y-140160952D01*
X120134819Y-140160952D02*
X120134819Y-140065714D01*
X119134819Y-141351428D02*
X119134819Y-141160952D01*
X119134819Y-141160952D02*
X119182438Y-141065714D01*
X119182438Y-141065714D02*
X119230057Y-141018095D01*
X119230057Y-141018095D02*
X119372914Y-140922857D01*
X119372914Y-140922857D02*
X119563390Y-140875238D01*
X119563390Y-140875238D02*
X119944342Y-140875238D01*
X119944342Y-140875238D02*
X120039580Y-140922857D01*
X120039580Y-140922857D02*
X120087200Y-140970476D01*
X120087200Y-140970476D02*
X120134819Y-141065714D01*
X120134819Y-141065714D02*
X120134819Y-141256190D01*
X120134819Y-141256190D02*
X120087200Y-141351428D01*
X120087200Y-141351428D02*
X120039580Y-141399047D01*
X120039580Y-141399047D02*
X119944342Y-141446666D01*
X119944342Y-141446666D02*
X119706247Y-141446666D01*
X119706247Y-141446666D02*
X119611009Y-141399047D01*
X119611009Y-141399047D02*
X119563390Y-141351428D01*
X119563390Y-141351428D02*
X119515771Y-141256190D01*
X119515771Y-141256190D02*
X119515771Y-141065714D01*
X119515771Y-141065714D02*
X119563390Y-140970476D01*
X119563390Y-140970476D02*
X119611009Y-140922857D01*
X119611009Y-140922857D02*
X119706247Y-140875238D01*
X140949580Y-114567142D02*
X140997200Y-114519523D01*
X140997200Y-114519523D02*
X141044819Y-114376666D01*
X141044819Y-114376666D02*
X141044819Y-114281428D01*
X141044819Y-114281428D02*
X140997200Y-114138571D01*
X140997200Y-114138571D02*
X140901961Y-114043333D01*
X140901961Y-114043333D02*
X140806723Y-113995714D01*
X140806723Y-113995714D02*
X140616247Y-113948095D01*
X140616247Y-113948095D02*
X140473390Y-113948095D01*
X140473390Y-113948095D02*
X140282914Y-113995714D01*
X140282914Y-113995714D02*
X140187676Y-114043333D01*
X140187676Y-114043333D02*
X140092438Y-114138571D01*
X140092438Y-114138571D02*
X140044819Y-114281428D01*
X140044819Y-114281428D02*
X140044819Y-114376666D01*
X140044819Y-114376666D02*
X140092438Y-114519523D01*
X140092438Y-114519523D02*
X140140057Y-114567142D01*
X141044819Y-115519523D02*
X141044819Y-114948095D01*
X141044819Y-115233809D02*
X140044819Y-115233809D01*
X140044819Y-115233809D02*
X140187676Y-115138571D01*
X140187676Y-115138571D02*
X140282914Y-115043333D01*
X140282914Y-115043333D02*
X140330533Y-114948095D01*
X140044819Y-116138571D02*
X140044819Y-116233809D01*
X140044819Y-116233809D02*
X140092438Y-116329047D01*
X140092438Y-116329047D02*
X140140057Y-116376666D01*
X140140057Y-116376666D02*
X140235295Y-116424285D01*
X140235295Y-116424285D02*
X140425771Y-116471904D01*
X140425771Y-116471904D02*
X140663866Y-116471904D01*
X140663866Y-116471904D02*
X140854342Y-116424285D01*
X140854342Y-116424285D02*
X140949580Y-116376666D01*
X140949580Y-116376666D02*
X140997200Y-116329047D01*
X140997200Y-116329047D02*
X141044819Y-116233809D01*
X141044819Y-116233809D02*
X141044819Y-116138571D01*
X141044819Y-116138571D02*
X140997200Y-116043333D01*
X140997200Y-116043333D02*
X140949580Y-115995714D01*
X140949580Y-115995714D02*
X140854342Y-115948095D01*
X140854342Y-115948095D02*
X140663866Y-115900476D01*
X140663866Y-115900476D02*
X140425771Y-115900476D01*
X140425771Y-115900476D02*
X140235295Y-115948095D01*
X140235295Y-115948095D02*
X140140057Y-115995714D01*
X140140057Y-115995714D02*
X140092438Y-116043333D01*
X140092438Y-116043333D02*
X140044819Y-116138571D01*
X181613333Y-104744819D02*
X181613333Y-105459104D01*
X181613333Y-105459104D02*
X181660952Y-105601961D01*
X181660952Y-105601961D02*
X181756190Y-105697200D01*
X181756190Y-105697200D02*
X181899047Y-105744819D01*
X181899047Y-105744819D02*
X181994285Y-105744819D01*
X181232380Y-104744819D02*
X180565714Y-104744819D01*
X180565714Y-104744819D02*
X180994285Y-105744819D01*
X185254819Y-88867619D02*
X185254819Y-89439047D01*
X186254819Y-89153333D02*
X185254819Y-89153333D01*
X185731009Y-90105714D02*
X185731009Y-89772381D01*
X186254819Y-89772381D02*
X185254819Y-89772381D01*
X185254819Y-89772381D02*
X185254819Y-90248571D01*
X185254819Y-90486667D02*
X185254819Y-91058095D01*
X186254819Y-90772381D02*
X185254819Y-90772381D01*
X186254819Y-92153334D02*
X185254819Y-92153334D01*
X185254819Y-92153334D02*
X185254819Y-92391429D01*
X185254819Y-92391429D02*
X185302438Y-92534286D01*
X185302438Y-92534286D02*
X185397676Y-92629524D01*
X185397676Y-92629524D02*
X185492914Y-92677143D01*
X185492914Y-92677143D02*
X185683390Y-92724762D01*
X185683390Y-92724762D02*
X185826247Y-92724762D01*
X185826247Y-92724762D02*
X186016723Y-92677143D01*
X186016723Y-92677143D02*
X186111961Y-92629524D01*
X186111961Y-92629524D02*
X186207200Y-92534286D01*
X186207200Y-92534286D02*
X186254819Y-92391429D01*
X186254819Y-92391429D02*
X186254819Y-92153334D01*
X186254819Y-93153334D02*
X185254819Y-93153334D01*
X186207200Y-93581905D02*
X186254819Y-93724762D01*
X186254819Y-93724762D02*
X186254819Y-93962857D01*
X186254819Y-93962857D02*
X186207200Y-94058095D01*
X186207200Y-94058095D02*
X186159580Y-94105714D01*
X186159580Y-94105714D02*
X186064342Y-94153333D01*
X186064342Y-94153333D02*
X185969104Y-94153333D01*
X185969104Y-94153333D02*
X185873866Y-94105714D01*
X185873866Y-94105714D02*
X185826247Y-94058095D01*
X185826247Y-94058095D02*
X185778628Y-93962857D01*
X185778628Y-93962857D02*
X185731009Y-93772381D01*
X185731009Y-93772381D02*
X185683390Y-93677143D01*
X185683390Y-93677143D02*
X185635771Y-93629524D01*
X185635771Y-93629524D02*
X185540533Y-93581905D01*
X185540533Y-93581905D02*
X185445295Y-93581905D01*
X185445295Y-93581905D02*
X185350057Y-93629524D01*
X185350057Y-93629524D02*
X185302438Y-93677143D01*
X185302438Y-93677143D02*
X185254819Y-93772381D01*
X185254819Y-93772381D02*
X185254819Y-94010476D01*
X185254819Y-94010476D02*
X185302438Y-94153333D01*
X186254819Y-94581905D02*
X185254819Y-94581905D01*
X185254819Y-94581905D02*
X185254819Y-94962857D01*
X185254819Y-94962857D02*
X185302438Y-95058095D01*
X185302438Y-95058095D02*
X185350057Y-95105714D01*
X185350057Y-95105714D02*
X185445295Y-95153333D01*
X185445295Y-95153333D02*
X185588152Y-95153333D01*
X185588152Y-95153333D02*
X185683390Y-95105714D01*
X185683390Y-95105714D02*
X185731009Y-95058095D01*
X185731009Y-95058095D02*
X185778628Y-94962857D01*
X185778628Y-94962857D02*
X185778628Y-94581905D01*
X186254819Y-96058095D02*
X186254819Y-95581905D01*
X186254819Y-95581905D02*
X185254819Y-95581905D01*
X185969104Y-96343810D02*
X185969104Y-96820000D01*
X186254819Y-96248572D02*
X185254819Y-96581905D01*
X185254819Y-96581905D02*
X186254819Y-96915238D01*
X185778628Y-97439048D02*
X186254819Y-97439048D01*
X185254819Y-97105715D02*
X185778628Y-97439048D01*
X185778628Y-97439048D02*
X185254819Y-97772381D01*
X158904819Y-73166666D02*
X159619104Y-73166666D01*
X159619104Y-73166666D02*
X159761961Y-73119047D01*
X159761961Y-73119047D02*
X159857200Y-73023809D01*
X159857200Y-73023809D02*
X159904819Y-72880952D01*
X159904819Y-72880952D02*
X159904819Y-72785714D01*
X158904819Y-74119047D02*
X158904819Y-73642857D01*
X158904819Y-73642857D02*
X159381009Y-73595238D01*
X159381009Y-73595238D02*
X159333390Y-73642857D01*
X159333390Y-73642857D02*
X159285771Y-73738095D01*
X159285771Y-73738095D02*
X159285771Y-73976190D01*
X159285771Y-73976190D02*
X159333390Y-74071428D01*
X159333390Y-74071428D02*
X159381009Y-74119047D01*
X159381009Y-74119047D02*
X159476247Y-74166666D01*
X159476247Y-74166666D02*
X159714342Y-74166666D01*
X159714342Y-74166666D02*
X159809580Y-74119047D01*
X159809580Y-74119047D02*
X159857200Y-74071428D01*
X159857200Y-74071428D02*
X159904819Y-73976190D01*
X159904819Y-73976190D02*
X159904819Y-73738095D01*
X159904819Y-73738095D02*
X159857200Y-73642857D01*
X159857200Y-73642857D02*
X159809580Y-73595238D01*
X146962857Y-117119580D02*
X147010476Y-117167200D01*
X147010476Y-117167200D02*
X147153333Y-117214819D01*
X147153333Y-117214819D02*
X147248571Y-117214819D01*
X147248571Y-117214819D02*
X147391428Y-117167200D01*
X147391428Y-117167200D02*
X147486666Y-117071961D01*
X147486666Y-117071961D02*
X147534285Y-116976723D01*
X147534285Y-116976723D02*
X147581904Y-116786247D01*
X147581904Y-116786247D02*
X147581904Y-116643390D01*
X147581904Y-116643390D02*
X147534285Y-116452914D01*
X147534285Y-116452914D02*
X147486666Y-116357676D01*
X147486666Y-116357676D02*
X147391428Y-116262438D01*
X147391428Y-116262438D02*
X147248571Y-116214819D01*
X147248571Y-116214819D02*
X147153333Y-116214819D01*
X147153333Y-116214819D02*
X147010476Y-116262438D01*
X147010476Y-116262438D02*
X146962857Y-116310057D01*
X146010476Y-117214819D02*
X146581904Y-117214819D01*
X146296190Y-117214819D02*
X146296190Y-116214819D01*
X146296190Y-116214819D02*
X146391428Y-116357676D01*
X146391428Y-116357676D02*
X146486666Y-116452914D01*
X146486666Y-116452914D02*
X146581904Y-116500533D01*
X145058095Y-117214819D02*
X145629523Y-117214819D01*
X145343809Y-117214819D02*
X145343809Y-116214819D01*
X145343809Y-116214819D02*
X145439047Y-116357676D01*
X145439047Y-116357676D02*
X145534285Y-116452914D01*
X145534285Y-116452914D02*
X145629523Y-116500533D01*
X109573333Y-96684819D02*
X109573333Y-97399104D01*
X109573333Y-97399104D02*
X109620952Y-97541961D01*
X109620952Y-97541961D02*
X109716190Y-97637200D01*
X109716190Y-97637200D02*
X109859047Y-97684819D01*
X109859047Y-97684819D02*
X109954285Y-97684819D01*
X108668571Y-97018152D02*
X108668571Y-97684819D01*
X108906666Y-96637200D02*
X109144761Y-97351485D01*
X109144761Y-97351485D02*
X108525714Y-97351485D01*
D12*
%TO.C,J6*%
X138935000Y-139490000D02*
X138935000Y-142150000D01*
X123635000Y-139490000D02*
X138935000Y-139490000D01*
X123635000Y-139490000D02*
X123635000Y-142150000D01*
X122365000Y-139490000D02*
X121035000Y-139490000D01*
X121035000Y-139490000D02*
X121035000Y-140820000D01*
X123635000Y-142150000D02*
X138935000Y-142150000D01*
D13*
%TO.C,Y2*%
X142738299Y-111252513D02*
G75*
G03*
X142538299Y-111252513I-100000J0D01*
G01*
X142538299Y-111252513D02*
G75*
G03*
X142738299Y-111252513I100000J0D01*
G01*
D12*
%TO.C,C10*%
X143155000Y-114108748D02*
X143155000Y-114631252D01*
X141685000Y-114108748D02*
X141685000Y-114631252D01*
%TO.C,J7*%
X182610000Y-121650000D02*
X179950000Y-121650000D01*
X182610000Y-108890000D02*
X182610000Y-121650000D01*
X182610000Y-108890000D02*
X179950000Y-108890000D01*
X182610000Y-107620000D02*
X182610000Y-106290000D01*
X182610000Y-106290000D02*
X181280000Y-106290000D01*
X179950000Y-108890000D02*
X179950000Y-121650000D01*
%TO.C,G\u002A\u002A\u002A*%
G36*
X174839065Y-137831277D02*
G01*
X174839065Y-138794614D01*
X175040254Y-138794614D01*
X175241444Y-138794614D01*
X175236936Y-138991295D01*
X175232428Y-139187977D01*
X174718648Y-139187977D01*
X174204868Y-139187977D01*
X174200360Y-138991295D01*
X174195851Y-138794614D01*
X174397041Y-138794614D01*
X174598230Y-138794614D01*
X174598230Y-137831277D01*
X174598230Y-136867939D01*
X174718648Y-136867939D01*
X174839065Y-136867939D01*
X174839065Y-137831277D01*
G37*
G36*
X170716623Y-137605950D02*
G01*
X170720797Y-138343961D01*
X170975967Y-137605950D01*
X171231138Y-136867939D01*
X171357288Y-136867939D01*
X171483439Y-136867939D01*
X171483439Y-138023944D01*
X171483439Y-139179949D01*
X171371050Y-139179949D01*
X171258660Y-139179949D01*
X171256784Y-138533710D01*
X171256666Y-138498351D01*
X171255888Y-138353969D01*
X171254690Y-138216851D01*
X171253140Y-138091139D01*
X171251303Y-137980974D01*
X171249247Y-137890498D01*
X171247037Y-137823850D01*
X171244742Y-137785172D01*
X171234577Y-137682873D01*
X171018972Y-138306980D01*
X171004849Y-138347862D01*
X170956807Y-138486965D01*
X170910897Y-138619933D01*
X170868513Y-138742731D01*
X170831047Y-138851324D01*
X170799891Y-138941674D01*
X170776439Y-139009746D01*
X170762082Y-139051504D01*
X170720797Y-139171921D01*
X170588338Y-139176585D01*
X170455879Y-139181248D01*
X170455879Y-138024593D01*
X170455879Y-136867939D01*
X170584164Y-136867939D01*
X170712448Y-136867939D01*
X170716623Y-137605950D01*
G37*
G36*
X173548904Y-136842160D02*
G01*
X173568766Y-136843304D01*
X173675248Y-136863497D01*
X173764914Y-136907861D01*
X173839573Y-136978015D01*
X173901034Y-137075580D01*
X173951107Y-137202174D01*
X173956319Y-137219821D01*
X173970490Y-137283202D01*
X173982671Y-137364100D01*
X173992952Y-137464336D01*
X174001426Y-137585732D01*
X174008183Y-137730109D01*
X174013315Y-137899288D01*
X174016912Y-138095091D01*
X174019068Y-138319337D01*
X174019872Y-138573849D01*
X174020228Y-139179949D01*
X173884283Y-139179949D01*
X173748337Y-139179949D01*
X173743796Y-138308931D01*
X173743131Y-138182725D01*
X173742161Y-138012779D01*
X173741155Y-137870446D01*
X173739996Y-137752995D01*
X173738569Y-137657697D01*
X173736756Y-137581824D01*
X173734441Y-137522645D01*
X173731507Y-137477431D01*
X173727837Y-137443454D01*
X173723315Y-137417982D01*
X173717825Y-137398288D01*
X173711249Y-137381641D01*
X173703470Y-137365313D01*
X173700747Y-137359902D01*
X173651128Y-137291056D01*
X173586891Y-137250506D01*
X173506448Y-137237218D01*
X173483000Y-137238131D01*
X173412186Y-137256246D01*
X173353704Y-137299995D01*
X173302770Y-137372558D01*
X173257680Y-137453969D01*
X173247239Y-138200556D01*
X173245516Y-138323779D01*
X173243388Y-138475851D01*
X173241387Y-138618860D01*
X173239565Y-138748967D01*
X173237976Y-138862330D01*
X173236675Y-138955108D01*
X173235716Y-139023461D01*
X173235151Y-139063546D01*
X173233502Y-139179949D01*
X173109071Y-139179956D01*
X172984640Y-139179963D01*
X172988494Y-138373161D01*
X172988540Y-138363806D01*
X172989668Y-138199855D01*
X172991348Y-138040930D01*
X172993499Y-137890901D01*
X172996042Y-137753636D01*
X172998896Y-137633006D01*
X173001980Y-137532878D01*
X173005214Y-137457124D01*
X173008517Y-137409611D01*
X173027062Y-137289605D01*
X173065875Y-137154715D01*
X173120443Y-137041252D01*
X173189314Y-136951490D01*
X173271036Y-136887706D01*
X173364157Y-136852179D01*
X173410631Y-136845821D01*
X173478938Y-136841884D01*
X173548904Y-136842160D01*
G37*
G36*
X172320527Y-136841989D02*
G01*
X172390560Y-136853553D01*
X172431319Y-136868164D01*
X172505022Y-136912144D01*
X172574716Y-136973073D01*
X172630186Y-137042884D01*
X172648557Y-137073442D01*
X172690947Y-137160622D01*
X172720148Y-137254245D01*
X172738327Y-137362634D01*
X172747650Y-137494108D01*
X172749741Y-137579097D01*
X172746626Y-137698080D01*
X172734370Y-137798691D01*
X172711815Y-137888950D01*
X172677800Y-137976871D01*
X172672828Y-137987651D01*
X172631735Y-138058599D01*
X172577216Y-138122787D01*
X172504880Y-138184007D01*
X172410336Y-138246055D01*
X172289194Y-138312725D01*
X172227184Y-138345493D01*
X172144258Y-138393421D01*
X172084785Y-138435327D01*
X172044713Y-138474762D01*
X172019990Y-138515277D01*
X172006566Y-138560422D01*
X172004910Y-138570118D01*
X172004994Y-138655552D01*
X172030064Y-138729187D01*
X172075757Y-138786990D01*
X172137713Y-138824932D01*
X172211569Y-138838982D01*
X172292966Y-138825109D01*
X172316056Y-138815475D01*
X172375599Y-138769813D01*
X172419363Y-138698404D01*
X172448532Y-138599535D01*
X172467306Y-138504109D01*
X172581472Y-138514963D01*
X172585585Y-138515358D01*
X172642973Y-138521666D01*
X172686734Y-138527884D01*
X172707680Y-138532718D01*
X172717156Y-138551546D01*
X172719104Y-138595687D01*
X172712926Y-138657729D01*
X172699829Y-138731052D01*
X172681021Y-138809037D01*
X172657709Y-138885065D01*
X172631101Y-138952518D01*
X172589716Y-139028344D01*
X172515553Y-139118262D01*
X172427347Y-139181356D01*
X172416812Y-139186466D01*
X172370949Y-139201646D01*
X172311773Y-139209697D01*
X172230026Y-139212060D01*
X172211612Y-139211937D01*
X172117845Y-139205352D01*
X172044377Y-139186282D01*
X171982080Y-139151322D01*
X171921824Y-139097064D01*
X171901065Y-139073524D01*
X171840100Y-138976727D01*
X171795484Y-138859854D01*
X171767792Y-138729090D01*
X171757596Y-138590620D01*
X171765471Y-138450627D01*
X171791991Y-138315298D01*
X171837730Y-138190815D01*
X171842615Y-138180762D01*
X171895103Y-138095898D01*
X171964709Y-138021599D01*
X172056388Y-137953400D01*
X172175097Y-137886836D01*
X172272636Y-137836349D01*
X172355436Y-137788352D01*
X172415186Y-137744932D01*
X172455441Y-137702231D01*
X172479755Y-137656389D01*
X172491686Y-137603548D01*
X172494787Y-137539849D01*
X172494455Y-137526374D01*
X172482006Y-137446856D01*
X172454765Y-137369059D01*
X172417105Y-137303097D01*
X172373400Y-137259088D01*
X172371628Y-137257951D01*
X172314321Y-137236372D01*
X172244496Y-137229935D01*
X172175845Y-137238486D01*
X172122060Y-137261875D01*
X172086824Y-137295960D01*
X172041337Y-137364306D01*
X172002916Y-137450070D01*
X171975940Y-137544771D01*
X171955013Y-137646637D01*
X171872119Y-137644455D01*
X171844407Y-137643263D01*
X171788397Y-137638427D01*
X171747509Y-137631803D01*
X171736325Y-137628850D01*
X171719248Y-137620634D01*
X171711680Y-137603877D01*
X171711612Y-137570786D01*
X171717036Y-137513568D01*
X171720459Y-137486280D01*
X171735110Y-137404761D01*
X171756103Y-137314189D01*
X171780716Y-137224774D01*
X171806225Y-137146725D01*
X171829909Y-137090254D01*
X171854496Y-137048683D01*
X171926435Y-136963213D01*
X172014370Y-136894751D01*
X172109504Y-136850829D01*
X172164321Y-136840999D01*
X172240421Y-136837759D01*
X172320527Y-136841989D01*
G37*
G36*
X172916994Y-131331604D02*
G01*
X173054582Y-131332737D01*
X173181388Y-131334672D01*
X173292155Y-131337414D01*
X173381624Y-131340966D01*
X173444538Y-131345333D01*
X173500129Y-131351197D01*
X173759403Y-131385903D01*
X174031057Y-131433086D01*
X174304011Y-131490464D01*
X174567186Y-131555754D01*
X174809504Y-131626671D01*
X175115119Y-131733046D01*
X175513629Y-131897838D01*
X175903113Y-132088329D01*
X176279628Y-132302238D01*
X176639225Y-132537284D01*
X176977960Y-132791186D01*
X177291887Y-133061663D01*
X177372201Y-133136941D01*
X177663911Y-133427968D01*
X177928009Y-133722097D01*
X178167978Y-134023922D01*
X178387304Y-134338041D01*
X178589471Y-134669049D01*
X178777964Y-135021542D01*
X178784448Y-135034507D01*
X178957877Y-135406175D01*
X179103829Y-135772553D01*
X179224485Y-136140258D01*
X179322022Y-136515906D01*
X179398621Y-136906115D01*
X179412409Y-136989819D01*
X179431204Y-137111005D01*
X179446264Y-137221165D01*
X179457923Y-137325690D01*
X179466518Y-137429970D01*
X179472385Y-137539394D01*
X179475860Y-137659352D01*
X179477279Y-137795235D01*
X179476977Y-137952432D01*
X179475290Y-138136333D01*
X179473708Y-138258818D01*
X179470579Y-138423776D01*
X179466098Y-138566199D01*
X179459692Y-138691883D01*
X179450789Y-138806623D01*
X179438820Y-138916213D01*
X179423211Y-139026448D01*
X179403393Y-139143124D01*
X179378793Y-139272035D01*
X179348841Y-139418976D01*
X179256209Y-139803619D01*
X179121999Y-140233982D01*
X178957555Y-140656679D01*
X178763716Y-141069934D01*
X178541326Y-141471971D01*
X178291225Y-141861015D01*
X178014255Y-142235290D01*
X178011580Y-142238654D01*
X177955027Y-142305967D01*
X177879624Y-142390500D01*
X177789713Y-142487803D01*
X177689639Y-142593426D01*
X177583744Y-142702918D01*
X177476371Y-142811830D01*
X177371863Y-142915711D01*
X177274564Y-143010110D01*
X177188817Y-143090578D01*
X177118964Y-143152665D01*
X176785429Y-143417649D01*
X176414268Y-143673855D01*
X176025551Y-143905143D01*
X175621828Y-144110326D01*
X175205647Y-144288220D01*
X174779556Y-144437639D01*
X174346104Y-144557398D01*
X173907839Y-144646310D01*
X173800572Y-144663874D01*
X173693466Y-144680431D01*
X173597202Y-144693687D01*
X173506410Y-144704018D01*
X173415721Y-144711799D01*
X173319767Y-144717409D01*
X173213178Y-144721223D01*
X173090586Y-144723616D01*
X172946622Y-144724966D01*
X172775917Y-144725650D01*
X172732574Y-144725752D01*
X172580797Y-144725888D01*
X172455325Y-144725456D01*
X172351534Y-144724265D01*
X172264795Y-144722123D01*
X172190484Y-144718839D01*
X172123972Y-144714222D01*
X172060633Y-144708080D01*
X171995841Y-144700221D01*
X171924969Y-144690456D01*
X171471007Y-144612113D01*
X171014045Y-144503887D01*
X170573152Y-144368217D01*
X170147404Y-144204707D01*
X169735875Y-144012965D01*
X169337643Y-143792597D01*
X168951783Y-143543210D01*
X168577371Y-143264410D01*
X168511004Y-143209842D01*
X168394331Y-143107764D01*
X168266007Y-142989433D01*
X168131250Y-142860071D01*
X168067988Y-142797180D01*
X168502049Y-142797180D01*
X168508914Y-142810991D01*
X168533621Y-142836610D01*
X168578666Y-142876679D01*
X168646545Y-142933839D01*
X168651522Y-142937972D01*
X169012746Y-143219108D01*
X169382570Y-143469860D01*
X169763062Y-143691245D01*
X170156292Y-143884281D01*
X170564328Y-144049983D01*
X170989237Y-144189369D01*
X171433088Y-144303454D01*
X171456685Y-144308695D01*
X171532380Y-144324814D01*
X171594449Y-144336982D01*
X171637008Y-144344091D01*
X171654173Y-144345035D01*
X171645787Y-144333166D01*
X171617354Y-144304758D01*
X171573341Y-144264179D01*
X171518282Y-144215743D01*
X171490080Y-144190901D01*
X171378494Y-144084084D01*
X171260704Y-143959568D01*
X171144158Y-143825479D01*
X171036306Y-143689942D01*
X170998619Y-143640955D01*
X170968805Y-143607701D01*
X170942050Y-143589289D01*
X170909952Y-143580083D01*
X170864106Y-143574446D01*
X170805081Y-143564454D01*
X170702755Y-143525964D01*
X170617486Y-143465782D01*
X170551733Y-143388243D01*
X170507958Y-143297683D01*
X170488620Y-143198437D01*
X170496181Y-143094839D01*
X170533100Y-142991227D01*
X170564866Y-142929309D01*
X170518169Y-142836804D01*
X170505839Y-142812221D01*
X170487493Y-142779223D01*
X170468592Y-142759046D01*
X170442926Y-142750254D01*
X170404281Y-142751409D01*
X170346447Y-142761074D01*
X170263211Y-142777812D01*
X170166051Y-142796784D01*
X170031516Y-142820087D01*
X169904729Y-142837570D01*
X169777733Y-142849952D01*
X169642573Y-142857957D01*
X169491290Y-142862305D01*
X169315930Y-142863717D01*
X169277726Y-142863735D01*
X169152647Y-142863345D01*
X169052319Y-142861971D01*
X168970933Y-142859270D01*
X168902678Y-142854895D01*
X168841746Y-142848504D01*
X168782327Y-142839751D01*
X168718611Y-142828291D01*
X168645863Y-142814676D01*
X168581548Y-142803138D01*
X168534944Y-142795334D01*
X168512954Y-142792465D01*
X168510527Y-142792535D01*
X168502049Y-142797180D01*
X168067988Y-142797180D01*
X167995280Y-142724898D01*
X167951441Y-142679797D01*
X170783448Y-142679797D01*
X170796349Y-142724120D01*
X170803658Y-142737781D01*
X170823120Y-142758546D01*
X170855406Y-142771001D01*
X170910149Y-142779865D01*
X170999106Y-142798252D01*
X171103962Y-142844882D01*
X171188194Y-142915863D01*
X171251169Y-143010767D01*
X171275058Y-143086923D01*
X171282609Y-143179068D01*
X171272863Y-143271222D01*
X171246025Y-143349758D01*
X171234685Y-143371744D01*
X171217329Y-143407582D01*
X171210493Y-143425197D01*
X171210600Y-143425654D01*
X171221928Y-143442737D01*
X171249234Y-143479238D01*
X171288690Y-143530136D01*
X171336465Y-143590407D01*
X171409043Y-143678175D01*
X171589099Y-143872366D01*
X171773877Y-144039501D01*
X171961414Y-144177903D01*
X172149748Y-144285892D01*
X172189180Y-144304934D01*
X172312898Y-144359341D01*
X172423639Y-144397393D01*
X172531195Y-144421455D01*
X172645357Y-144433891D01*
X172775917Y-144437064D01*
X172794523Y-144436932D01*
X172913059Y-144433023D01*
X173014172Y-144422279D01*
X173109186Y-144402422D01*
X173209422Y-144371171D01*
X173285748Y-144341808D01*
X173910489Y-144341808D01*
X173918593Y-144342424D01*
X173953511Y-144337647D01*
X174010788Y-144326869D01*
X174085059Y-144311298D01*
X174170958Y-144292141D01*
X174263120Y-144270606D01*
X174356179Y-144247902D01*
X174444770Y-144225235D01*
X174523528Y-144203814D01*
X174571895Y-144189923D01*
X175000400Y-144048798D01*
X175415120Y-143879009D01*
X175816632Y-143680248D01*
X176205507Y-143452208D01*
X176582319Y-143194583D01*
X176947644Y-142907066D01*
X176986014Y-142873900D01*
X177027576Y-142835229D01*
X177053066Y-142807858D01*
X177058044Y-142796242D01*
X177058026Y-142796236D01*
X177036982Y-142796953D01*
X176991143Y-142802646D01*
X176927252Y-142812369D01*
X176852056Y-142825173D01*
X176669420Y-142850699D01*
X176439863Y-142867150D01*
X176194001Y-142870255D01*
X175938652Y-142860131D01*
X175680634Y-142836895D01*
X175426762Y-142800664D01*
X175402043Y-142796424D01*
X175317360Y-142781741D01*
X175242127Y-142768465D01*
X175183747Y-142757913D01*
X175149626Y-142751402D01*
X175141343Y-142749569D01*
X175124767Y-142746248D01*
X175110760Y-142747192D01*
X175096743Y-142755810D01*
X175080135Y-142775510D01*
X175058354Y-142809700D01*
X175028820Y-142861789D01*
X174988951Y-142935186D01*
X174936166Y-143033299D01*
X174815376Y-143245982D01*
X174655315Y-143497303D01*
X174486741Y-143731061D01*
X174312459Y-143943648D01*
X174135278Y-144131454D01*
X173958003Y-144290872D01*
X173943071Y-144303554D01*
X173917525Y-144328732D01*
X173910489Y-144341808D01*
X173285748Y-144341808D01*
X173326203Y-144326245D01*
X173373357Y-144305725D01*
X173525272Y-144223996D01*
X173682872Y-144117670D01*
X173841467Y-143990700D01*
X173996368Y-143847040D01*
X174142884Y-143690640D01*
X174276326Y-143525456D01*
X174299806Y-143493452D01*
X174363419Y-143402584D01*
X174429320Y-143303256D01*
X174495259Y-143199366D01*
X174558987Y-143094813D01*
X174618254Y-142993493D01*
X174670811Y-142899305D01*
X174714409Y-142816146D01*
X174746798Y-142747915D01*
X174765728Y-142698509D01*
X174768951Y-142671826D01*
X174768253Y-142670323D01*
X174746201Y-142652923D01*
X174707691Y-142639321D01*
X174698984Y-142637291D01*
X174644646Y-142622255D01*
X174567261Y-142598446D01*
X174472561Y-142567800D01*
X174366277Y-142532255D01*
X174254142Y-142493749D01*
X174141888Y-142454218D01*
X174124413Y-142447890D01*
X175224400Y-142447890D01*
X175237765Y-142458271D01*
X175281114Y-142471941D01*
X175352481Y-142487743D01*
X175449806Y-142505273D01*
X175571031Y-142524127D01*
X175714096Y-142543902D01*
X175778071Y-142550835D01*
X175889161Y-142558671D01*
X176016823Y-142564028D01*
X176154118Y-142566904D01*
X176294104Y-142567298D01*
X176429840Y-142565210D01*
X176554385Y-142560639D01*
X176660797Y-142553583D01*
X176742135Y-142544042D01*
X176799372Y-142534123D01*
X177042128Y-142476139D01*
X177267340Y-142394507D01*
X177480215Y-142287419D01*
X177519900Y-142262509D01*
X177614842Y-142190359D01*
X177713119Y-142101306D01*
X177806840Y-142003339D01*
X177888116Y-141904448D01*
X177949056Y-141812623D01*
X177954139Y-141803463D01*
X178010029Y-141687430D01*
X178061118Y-141555503D01*
X178102544Y-141421513D01*
X178129447Y-141299292D01*
X178134535Y-141261172D01*
X178141998Y-141163554D01*
X178145483Y-141047979D01*
X178145092Y-140923795D01*
X178140929Y-140800349D01*
X178133096Y-140686991D01*
X178121695Y-140593068D01*
X178107028Y-140509360D01*
X178035103Y-140201220D01*
X177933503Y-139883001D01*
X177802576Y-139555520D01*
X177642673Y-139219595D01*
X177454142Y-138876043D01*
X177237334Y-138525682D01*
X177198106Y-138466327D01*
X177152174Y-138398802D01*
X177114134Y-138345119D01*
X177087124Y-138309681D01*
X177074280Y-138296890D01*
X177073667Y-138297003D01*
X177057261Y-138310957D01*
X177025654Y-138344870D01*
X176983135Y-138393958D01*
X176933995Y-138453432D01*
X176920770Y-138469754D01*
X176820545Y-138591566D01*
X176719853Y-138710275D01*
X176614179Y-138830973D01*
X176499004Y-138958751D01*
X176369812Y-139098702D01*
X176222086Y-139255916D01*
X176213059Y-139265467D01*
X176133712Y-139350193D01*
X176062442Y-139427645D01*
X176002079Y-139494642D01*
X175955454Y-139548005D01*
X175925397Y-139584555D01*
X175914740Y-139601112D01*
X175914504Y-139604682D01*
X175910941Y-139635079D01*
X175903620Y-139690669D01*
X175893223Y-139766458D01*
X175880433Y-139857449D01*
X175865930Y-139958647D01*
X175819117Y-140257676D01*
X175721912Y-140768147D01*
X175605963Y-141258936D01*
X175471900Y-141727495D01*
X175320351Y-142171272D01*
X175295492Y-142238767D01*
X175267161Y-142317461D01*
X175244637Y-142382097D01*
X175229767Y-142427349D01*
X175224400Y-142447890D01*
X174124413Y-142447890D01*
X174035247Y-142415601D01*
X173939950Y-142379834D01*
X173902030Y-142365171D01*
X173626713Y-142252938D01*
X173342369Y-142126781D01*
X173041259Y-141983284D01*
X172975066Y-141951084D01*
X172899939Y-141915382D01*
X172838414Y-141887102D01*
X172795534Y-141868553D01*
X172776341Y-141862041D01*
X172770141Y-141863640D01*
X172739060Y-141876497D01*
X172690336Y-141899377D01*
X172631416Y-141928846D01*
X172630511Y-141929311D01*
X172508688Y-141990004D01*
X172365723Y-142058162D01*
X172210388Y-142129800D01*
X172051455Y-142200931D01*
X171897696Y-142267571D01*
X171757884Y-142325733D01*
X171688924Y-142352903D01*
X171596664Y-142387780D01*
X171493414Y-142425648D01*
X171383744Y-142464938D01*
X171272219Y-142504081D01*
X171163409Y-142541507D01*
X171061881Y-142575647D01*
X170972202Y-142604932D01*
X170898940Y-142627793D01*
X170846662Y-142642660D01*
X170819938Y-142647964D01*
X170795159Y-142654023D01*
X170783448Y-142679797D01*
X167951441Y-142679797D01*
X167863318Y-142589136D01*
X167740582Y-142458005D01*
X167632294Y-142336725D01*
X167543671Y-142230518D01*
X167400442Y-142043903D01*
X167139184Y-141665642D01*
X166904582Y-141272650D01*
X166796062Y-141059993D01*
X167412527Y-141059993D01*
X167433487Y-141286928D01*
X167479164Y-141497720D01*
X167549458Y-141690796D01*
X167644267Y-141864587D01*
X167680484Y-141917266D01*
X167810534Y-142071511D01*
X167963478Y-142205435D01*
X168140017Y-142319447D01*
X168340852Y-142413953D01*
X168566681Y-142489358D01*
X168818205Y-142546069D01*
X168833361Y-142548603D01*
X168921847Y-142558913D01*
X169033497Y-142566563D01*
X169161019Y-142571498D01*
X169297123Y-142573660D01*
X169434518Y-142572993D01*
X169565913Y-142569443D01*
X169684018Y-142562953D01*
X169781543Y-142553466D01*
X169825433Y-142547605D01*
X169922224Y-142533687D01*
X170019938Y-142518489D01*
X170113122Y-142502969D01*
X170196321Y-142488086D01*
X170264083Y-142474797D01*
X170310952Y-142464061D01*
X170331477Y-142456837D01*
X170332010Y-142444469D01*
X170323269Y-142407252D01*
X170305752Y-142352177D01*
X170281404Y-142285881D01*
X170184128Y-142021222D01*
X170061710Y-141641491D01*
X169950198Y-141239271D01*
X169850802Y-140819379D01*
X169764735Y-140386633D01*
X169693205Y-139945849D01*
X169688776Y-139915109D01*
X169990136Y-139915109D01*
X169990266Y-139928184D01*
X169990764Y-139938265D01*
X169996177Y-139983626D01*
X170006804Y-140053478D01*
X170021725Y-140142834D01*
X170040019Y-140246709D01*
X170060765Y-140360117D01*
X170083040Y-140478073D01*
X170105925Y-140595592D01*
X170128498Y-140707688D01*
X170149838Y-140809375D01*
X170169024Y-140895668D01*
X170204002Y-141040349D01*
X170255712Y-141237295D01*
X170312895Y-141439440D01*
X170373632Y-141640660D01*
X170436003Y-141834834D01*
X170498087Y-142015839D01*
X170557965Y-142177552D01*
X170613717Y-142313851D01*
X170646583Y-142389156D01*
X170763968Y-142356924D01*
X170848167Y-142332435D01*
X170969574Y-142294205D01*
X171106676Y-142248639D01*
X171251858Y-142198382D01*
X171397501Y-142146080D01*
X171535989Y-142094376D01*
X171659705Y-142045916D01*
X171681428Y-142037099D01*
X171781935Y-141995342D01*
X171888388Y-141949779D01*
X171996343Y-141902442D01*
X172101358Y-141855363D01*
X172198990Y-141810576D01*
X172284795Y-141770111D01*
X172354332Y-141736003D01*
X172403156Y-141710283D01*
X172426825Y-141694985D01*
X172427534Y-141694244D01*
X172429382Y-141682752D01*
X172429333Y-141682691D01*
X173101845Y-141682691D01*
X173249176Y-141756685D01*
X173254549Y-141759377D01*
X173358588Y-141809416D01*
X173478449Y-141863738D01*
X173610649Y-141921029D01*
X173751703Y-141979978D01*
X173898130Y-142039274D01*
X174046445Y-142097603D01*
X174193165Y-142153654D01*
X174334807Y-142206116D01*
X174467888Y-142253675D01*
X174588924Y-142295021D01*
X174694432Y-142328842D01*
X174780929Y-142353824D01*
X174844930Y-142368657D01*
X174882954Y-142372028D01*
X174899984Y-142368227D01*
X174918300Y-142355908D01*
X174936515Y-142330039D01*
X174958325Y-142285081D01*
X174987428Y-142215491D01*
X175074838Y-141987925D01*
X175170790Y-141705889D01*
X175260533Y-141404474D01*
X175344716Y-141081159D01*
X175423988Y-140733427D01*
X175498999Y-140358758D01*
X175570399Y-139954633D01*
X175571172Y-139949637D01*
X175572632Y-139916542D01*
X175566309Y-139903651D01*
X175564580Y-139904390D01*
X175543743Y-139919613D01*
X175503534Y-139952089D01*
X175447753Y-139998654D01*
X175380200Y-140056147D01*
X175304678Y-140121402D01*
X175297677Y-140127489D01*
X174861760Y-140488703D01*
X174396793Y-140840081D01*
X173902131Y-141182088D01*
X173377131Y-141515190D01*
X173101845Y-141682691D01*
X172429333Y-141682691D01*
X172415734Y-141665701D01*
X172383429Y-141640612D01*
X172329309Y-141605006D01*
X172250213Y-141556402D01*
X171733097Y-141230947D01*
X171183371Y-140853081D01*
X170661316Y-140459019D01*
X170166878Y-140048722D01*
X170163797Y-140046040D01*
X170095730Y-139986763D01*
X170048208Y-139945809D01*
X170017558Y-139920672D01*
X170000111Y-139908847D01*
X169992194Y-139907828D01*
X169990136Y-139915109D01*
X169688776Y-139915109D01*
X169637811Y-139561378D01*
X169384528Y-139302427D01*
X169380742Y-139298554D01*
X169292291Y-139206968D01*
X169198429Y-139107972D01*
X169106184Y-139009095D01*
X169022584Y-138917870D01*
X168954656Y-138841825D01*
X168935878Y-138820319D01*
X168858313Y-138730468D01*
X168775893Y-138633680D01*
X168697354Y-138540263D01*
X168631433Y-138460521D01*
X168484800Y-138280869D01*
X168340087Y-138501616D01*
X168236519Y-138663512D01*
X168049973Y-138977898D01*
X167885101Y-139287911D01*
X167743373Y-139590523D01*
X167626258Y-139882702D01*
X167535226Y-140161418D01*
X167498954Y-140298043D01*
X167445160Y-140563980D01*
X167416384Y-140818487D01*
X167412527Y-141059993D01*
X166796062Y-141059993D01*
X166697526Y-140866902D01*
X166518901Y-140450374D01*
X166369596Y-140025042D01*
X166250498Y-139592880D01*
X166162495Y-139155866D01*
X166157104Y-139123036D01*
X166137266Y-139000275D01*
X166121210Y-138895093D01*
X166108541Y-138801968D01*
X166098864Y-138715380D01*
X166091784Y-138629808D01*
X166086906Y-138539730D01*
X166083836Y-138439625D01*
X166082177Y-138323974D01*
X166081535Y-138187254D01*
X166081516Y-138031972D01*
X166372296Y-138031972D01*
X166372615Y-138104300D01*
X166383488Y-138459897D01*
X166410717Y-138795996D01*
X166455518Y-139120083D01*
X166519108Y-139439642D01*
X166602702Y-139762160D01*
X166707517Y-140095120D01*
X166725625Y-140147427D01*
X166767195Y-140261890D01*
X166812165Y-140379376D01*
X166858914Y-140496205D01*
X166905821Y-140608696D01*
X166951267Y-140713169D01*
X166993631Y-140805944D01*
X167031294Y-140883339D01*
X167062635Y-140941674D01*
X167086034Y-140977269D01*
X167099871Y-140986443D01*
X167107453Y-140970432D01*
X167113850Y-140930334D01*
X167116309Y-140876463D01*
X167117322Y-140825908D01*
X167129605Y-140673679D01*
X167154808Y-140502127D01*
X167191648Y-140317974D01*
X167238843Y-140127944D01*
X167295112Y-139938760D01*
X167380735Y-139695734D01*
X167527159Y-139346210D01*
X167703091Y-138989683D01*
X167907832Y-138627545D01*
X168140679Y-138261189D01*
X168175994Y-138208176D01*
X168220689Y-138140019D01*
X168256303Y-138084429D01*
X168279856Y-138046076D01*
X168288369Y-138029630D01*
X168287298Y-138026929D01*
X168673853Y-138026929D01*
X168725690Y-138099111D01*
X168756002Y-138139676D01*
X168807171Y-138204583D01*
X168870431Y-138282190D01*
X168943062Y-138369385D01*
X169022343Y-138463053D01*
X169105552Y-138560081D01*
X169189968Y-138657356D01*
X169272870Y-138751763D01*
X169351537Y-138840188D01*
X169423247Y-138919519D01*
X169485279Y-138986640D01*
X169534912Y-139038439D01*
X169569424Y-139071802D01*
X169586095Y-139083615D01*
X169589058Y-139075568D01*
X169590538Y-139041612D01*
X169589074Y-138987215D01*
X169584722Y-138919045D01*
X169580659Y-138850811D01*
X169576954Y-138751978D01*
X169573873Y-138630394D01*
X169571436Y-138490866D01*
X169569665Y-138338201D01*
X169568768Y-138205043D01*
X169869729Y-138205043D01*
X169870653Y-138385489D01*
X169872563Y-138556131D01*
X169875474Y-138712512D01*
X169879404Y-138850173D01*
X169884368Y-138964656D01*
X169890382Y-139051504D01*
X169897011Y-139126199D01*
X169905700Y-139226339D01*
X169913588Y-139303005D01*
X169922888Y-139361381D01*
X169935816Y-139406648D01*
X169954587Y-139443991D01*
X169981417Y-139478591D01*
X170018520Y-139515632D01*
X170068113Y-139560296D01*
X170132410Y-139617767D01*
X170443354Y-139892185D01*
X170901088Y-140269226D01*
X171367290Y-140621076D01*
X171847474Y-140951838D01*
X172347157Y-141265617D01*
X172424145Y-141311937D01*
X172526834Y-141373843D01*
X172607711Y-141421767D01*
X172670553Y-141456826D01*
X172719141Y-141480137D01*
X172757252Y-141492819D01*
X172788667Y-141495989D01*
X172817164Y-141490764D01*
X172846523Y-141478262D01*
X172880522Y-141459601D01*
X172922941Y-141435899D01*
X173142116Y-141312406D01*
X173401386Y-141155086D01*
X173672475Y-140980051D01*
X173950595Y-140790803D01*
X174230956Y-140590841D01*
X174508770Y-140383668D01*
X174779247Y-140172785D01*
X175037599Y-139961691D01*
X175279037Y-139753888D01*
X175498771Y-139552877D01*
X175636669Y-139422189D01*
X175657793Y-139200721D01*
X175663522Y-139128044D01*
X175669959Y-139010332D01*
X175675420Y-138868573D01*
X175679890Y-138707274D01*
X175683350Y-138530943D01*
X175685784Y-138344089D01*
X175687173Y-138151219D01*
X175687501Y-137956842D01*
X175686751Y-137765465D01*
X175684904Y-137581597D01*
X175681944Y-137409745D01*
X175677853Y-137254418D01*
X175672614Y-137120123D01*
X175666210Y-137011369D01*
X175662438Y-136961718D01*
X175662145Y-136958147D01*
X175962396Y-136958147D01*
X175974719Y-137125780D01*
X175975271Y-137133861D01*
X175978142Y-137196762D01*
X175980600Y-137286010D01*
X175982645Y-137397429D01*
X175984276Y-137526845D01*
X175985493Y-137670082D01*
X175986296Y-137822965D01*
X175986685Y-137981318D01*
X175986658Y-138140965D01*
X175986217Y-138297732D01*
X175985360Y-138447443D01*
X175984088Y-138585923D01*
X175982400Y-138708995D01*
X175980296Y-138812485D01*
X175977776Y-138892218D01*
X175974838Y-138944017D01*
X175973943Y-138954517D01*
X175969388Y-139018970D01*
X175969272Y-139056941D01*
X175973923Y-139073186D01*
X175983667Y-139072462D01*
X176008863Y-139052038D01*
X176051875Y-139010205D01*
X176108720Y-138950882D01*
X176176672Y-138877245D01*
X176253008Y-138792466D01*
X176335003Y-138699720D01*
X176419933Y-138602182D01*
X176505075Y-138503026D01*
X176587703Y-138405425D01*
X176665093Y-138312555D01*
X176734521Y-138227590D01*
X176793263Y-138153703D01*
X176838595Y-138094069D01*
X176867792Y-138051863D01*
X176869829Y-138047605D01*
X177275941Y-138047605D01*
X177280718Y-138055088D01*
X177301596Y-138086765D01*
X177335202Y-138137237D01*
X177378142Y-138201411D01*
X177427019Y-138274195D01*
X177449144Y-138307249D01*
X177655846Y-138633486D01*
X177840996Y-138958607D01*
X178003252Y-139279787D01*
X178141270Y-139594204D01*
X178253707Y-139899034D01*
X178339220Y-140191454D01*
X178350094Y-140235198D01*
X178377842Y-140353343D01*
X178398966Y-140457544D01*
X178415404Y-140559308D01*
X178429095Y-140670147D01*
X178441978Y-140801567D01*
X178461523Y-141018318D01*
X178552037Y-140832256D01*
X178615995Y-140696708D01*
X178788362Y-140281585D01*
X178931109Y-139855241D01*
X179043641Y-139419868D01*
X179125364Y-138977657D01*
X179175685Y-138530800D01*
X179175811Y-138529147D01*
X179182322Y-138412427D01*
X179186221Y-138273662D01*
X179187636Y-138119616D01*
X179186697Y-137957054D01*
X179183535Y-137792741D01*
X179178277Y-137633442D01*
X179171054Y-137485922D01*
X179161996Y-137356944D01*
X179151231Y-137253274D01*
X179104487Y-136947883D01*
X179008457Y-136493192D01*
X178882265Y-136048701D01*
X178726221Y-135615600D01*
X178725856Y-135614688D01*
X178691689Y-135532767D01*
X178648680Y-135434554D01*
X178602294Y-135332310D01*
X178557997Y-135238293D01*
X178457232Y-135029570D01*
X178445729Y-135204368D01*
X178439216Y-135287885D01*
X178399407Y-135586242D01*
X178332873Y-135891192D01*
X178238756Y-136206892D01*
X178214702Y-136280219D01*
X178195739Y-136343997D01*
X178186247Y-136387115D01*
X178185159Y-136414648D01*
X178191403Y-136431671D01*
X178208676Y-136457764D01*
X178248317Y-136530467D01*
X178280316Y-136606088D01*
X178298421Y-136670666D01*
X178301545Y-136750576D01*
X178279572Y-136846173D01*
X178232968Y-136934483D01*
X178165854Y-137011007D01*
X178082354Y-137071240D01*
X177986586Y-137110681D01*
X177882673Y-137124829D01*
X177878449Y-137124872D01*
X177858951Y-137127460D01*
X177840861Y-137137066D01*
X177820721Y-137157867D01*
X177795071Y-137194042D01*
X177760451Y-137249766D01*
X177713402Y-137329218D01*
X177687647Y-137372495D01*
X177628957Y-137468433D01*
X177561994Y-137575277D01*
X177493166Y-137682850D01*
X177428882Y-137780979D01*
X177386094Y-137846372D01*
X177337637Y-137923819D01*
X177301799Y-137985486D01*
X177280571Y-138027904D01*
X177275941Y-138047605D01*
X176869829Y-138047605D01*
X176878129Y-138030258D01*
X176877484Y-138027044D01*
X176862380Y-138000034D01*
X176829143Y-137952881D01*
X176780306Y-137888705D01*
X176718406Y-137810624D01*
X176645975Y-137721757D01*
X176565549Y-137625224D01*
X176479663Y-137524144D01*
X176390851Y-137421637D01*
X176301647Y-137320820D01*
X176259088Y-137273386D01*
X176187214Y-137193788D01*
X176122235Y-137122450D01*
X176067764Y-137063306D01*
X176027410Y-137020289D01*
X176004783Y-136997335D01*
X175962396Y-136958147D01*
X175662145Y-136958147D01*
X175654156Y-136860930D01*
X175646068Y-136772618D01*
X175638667Y-136701673D01*
X175632447Y-136652984D01*
X175627899Y-136631443D01*
X175624020Y-136626117D01*
X175598446Y-136598926D01*
X175553265Y-136555055D01*
X175491873Y-136497621D01*
X175417668Y-136429746D01*
X175334048Y-136354546D01*
X175244409Y-136275143D01*
X175152150Y-136194654D01*
X175094278Y-136144865D01*
X174693554Y-135814983D01*
X174278651Y-135498166D01*
X173855671Y-135198757D01*
X173430715Y-134921100D01*
X173009883Y-134669538D01*
X172956157Y-134639029D01*
X172886466Y-134599638D01*
X172830565Y-134568263D01*
X172793154Y-134547539D01*
X172778932Y-134540098D01*
X172775277Y-134541475D01*
X172748678Y-134555453D01*
X172700759Y-134582387D01*
X172635952Y-134619666D01*
X172558683Y-134664681D01*
X172473383Y-134714823D01*
X172384480Y-134767483D01*
X172296402Y-134820049D01*
X172213578Y-134869914D01*
X172140438Y-134914467D01*
X172081410Y-134951098D01*
X171982275Y-135014271D01*
X171619550Y-135257286D01*
X171252029Y-135521202D01*
X170887542Y-135800081D01*
X170533919Y-136087983D01*
X170198989Y-136378970D01*
X170169427Y-136405483D01*
X170090245Y-136476142D01*
X170030129Y-136531179D01*
X169986162Y-136575815D01*
X169955426Y-136615275D01*
X169935006Y-136654782D01*
X169921984Y-136699559D01*
X169913443Y-136754831D01*
X169906468Y-136825821D01*
X169898141Y-136917751D01*
X169895879Y-136943492D01*
X169889501Y-137041882D01*
X169883979Y-137166132D01*
X169879329Y-137311784D01*
X169875567Y-137474380D01*
X169872710Y-137649461D01*
X169870774Y-137832571D01*
X169869775Y-138019251D01*
X169869729Y-138205043D01*
X169568768Y-138205043D01*
X169568581Y-138177205D01*
X169568205Y-138012685D01*
X169568558Y-137849448D01*
X169569661Y-137692300D01*
X169571534Y-137546047D01*
X169574199Y-137415496D01*
X169577677Y-137305455D01*
X169580703Y-137220128D01*
X169583008Y-137117513D01*
X169582818Y-137042320D01*
X169580145Y-136996082D01*
X169575002Y-136980328D01*
X169555705Y-136991290D01*
X169530006Y-137018625D01*
X169521817Y-137028666D01*
X169491549Y-137063580D01*
X169446361Y-137114287D01*
X169390846Y-137175653D01*
X169329601Y-137242546D01*
X169258105Y-137321351D01*
X169165078Y-137426550D01*
X169068163Y-137538547D01*
X168972501Y-137651273D01*
X168883237Y-137758656D01*
X168805514Y-137854627D01*
X168744474Y-137933116D01*
X168673853Y-138026929D01*
X168287298Y-138026929D01*
X168287056Y-138026318D01*
X168272406Y-138000877D01*
X168243564Y-137954294D01*
X168203091Y-137890617D01*
X168153549Y-137813891D01*
X168097501Y-137728163D01*
X167952470Y-137500839D01*
X167746275Y-137148532D01*
X167569456Y-136806348D01*
X167421633Y-136473467D01*
X167302423Y-136149074D01*
X167211443Y-135832351D01*
X167207066Y-135814281D01*
X167177887Y-135679261D01*
X167152912Y-135538680D01*
X167133450Y-135401599D01*
X167120812Y-135277084D01*
X167116309Y-135174196D01*
X167114628Y-135124317D01*
X167109625Y-135082368D01*
X167105119Y-135070214D01*
X167414964Y-135070214D01*
X167417330Y-135193097D01*
X167423086Y-135312730D01*
X167432139Y-135421361D01*
X167444399Y-135511239D01*
X167451607Y-135550210D01*
X167508910Y-135795793D01*
X167588455Y-136056332D01*
X167688109Y-136327082D01*
X167805742Y-136603300D01*
X167939221Y-136880242D01*
X168086416Y-137153163D01*
X168245195Y-137417319D01*
X168413426Y-137667966D01*
X168438164Y-137702463D01*
X168466075Y-137738398D01*
X168484336Y-137754118D01*
X168498223Y-137753448D01*
X168513011Y-137740216D01*
X168530763Y-137719904D01*
X168565598Y-137678848D01*
X168613445Y-137621857D01*
X168670533Y-137553427D01*
X168733088Y-137478053D01*
X168763651Y-137441207D01*
X168848093Y-137340425D01*
X168926933Y-137248260D01*
X169004873Y-137159475D01*
X169086613Y-137068832D01*
X169176856Y-136971096D01*
X169280302Y-136861029D01*
X169401655Y-136733394D01*
X169639909Y-136483774D01*
X169677502Y-136214257D01*
X169692252Y-136113721D01*
X169993488Y-136113721D01*
X169993766Y-136137926D01*
X169998262Y-136145436D01*
X170000805Y-136144242D01*
X170023180Y-136127834D01*
X170064886Y-136094560D01*
X170122194Y-136047472D01*
X170191375Y-135989621D01*
X170268701Y-135924061D01*
X170416075Y-135799946D01*
X170859101Y-135445713D01*
X171310290Y-135112326D01*
X171764737Y-134803315D01*
X172217534Y-134522208D01*
X172272597Y-134489400D01*
X172341594Y-134447368D01*
X172396611Y-134412745D01*
X172433054Y-134388438D01*
X172446327Y-134377359D01*
X172440942Y-134372726D01*
X173098645Y-134372726D01*
X173362755Y-134530848D01*
X173477811Y-134600743D01*
X173797956Y-134804929D01*
X174127147Y-135028088D01*
X174458286Y-135265059D01*
X174784278Y-135510681D01*
X175098026Y-135759791D01*
X175392435Y-136007228D01*
X175419891Y-136030937D01*
X175479050Y-136081275D01*
X175527195Y-136121202D01*
X175559953Y-136147128D01*
X175572951Y-136155461D01*
X175573201Y-136154832D01*
X175571829Y-136133631D01*
X175565584Y-136086660D01*
X175555317Y-136019000D01*
X175541880Y-135935731D01*
X175526123Y-135841933D01*
X175508899Y-135742688D01*
X175491059Y-135643076D01*
X175473453Y-135548177D01*
X175456933Y-135463072D01*
X175427637Y-135322543D01*
X175364816Y-135051292D01*
X175293798Y-134777681D01*
X175216603Y-134508594D01*
X175135251Y-134250913D01*
X175051761Y-134011521D01*
X174968153Y-133797301D01*
X174937367Y-133729720D01*
X174910763Y-133686978D01*
X174889747Y-133673129D01*
X174870418Y-133677447D01*
X174824221Y-133690815D01*
X174755938Y-133711896D01*
X174669888Y-133739331D01*
X174570388Y-133771760D01*
X174461758Y-133807826D01*
X174376965Y-133836690D01*
X174092944Y-133939590D01*
X173807014Y-134052111D01*
X173530431Y-134169701D01*
X173274449Y-134287812D01*
X173098645Y-134372726D01*
X172440942Y-134372726D01*
X172433580Y-134366392D01*
X172394945Y-134344266D01*
X172334134Y-134313000D01*
X172254895Y-134274384D01*
X172160977Y-134230210D01*
X172056128Y-134182268D01*
X171944098Y-134132350D01*
X171828635Y-134082246D01*
X171374471Y-133901538D01*
X170890940Y-133738170D01*
X170867035Y-133730858D01*
X170791332Y-133708083D01*
X170728244Y-133689673D01*
X170683785Y-133677359D01*
X170663969Y-133672869D01*
X170662565Y-133673020D01*
X170644754Y-133690283D01*
X170619295Y-133736482D01*
X170586020Y-133812022D01*
X170544759Y-133917311D01*
X170495345Y-134052755D01*
X170437608Y-134218761D01*
X170388241Y-134366822D01*
X170291807Y-134681658D01*
X170207485Y-134997173D01*
X170132608Y-135323755D01*
X170064509Y-135671795D01*
X170041585Y-135799725D01*
X170021477Y-135915824D01*
X170006992Y-136005182D01*
X169997780Y-136070311D01*
X169993488Y-136113721D01*
X169692252Y-136113721D01*
X169709662Y-135995055D01*
X169789763Y-135528311D01*
X169882676Y-135085664D01*
X169989393Y-134663023D01*
X170110907Y-134256297D01*
X170248210Y-133861395D01*
X170273520Y-133792928D01*
X170301042Y-133716934D01*
X170322424Y-133656078D01*
X170335930Y-133615326D01*
X170339819Y-133599644D01*
X170324604Y-133595451D01*
X170283864Y-133586625D01*
X170224041Y-133574568D01*
X170151524Y-133560603D01*
X169967587Y-133525900D01*
X169935305Y-133571287D01*
X169861973Y-133654102D01*
X169772266Y-133717618D01*
X169675298Y-133755318D01*
X169575564Y-133767279D01*
X169477558Y-133753578D01*
X169385776Y-133714293D01*
X169304713Y-133649502D01*
X169238863Y-133559282D01*
X169236489Y-133554979D01*
X169211343Y-133512169D01*
X169189968Y-133490256D01*
X169161539Y-133482482D01*
X169115234Y-133482088D01*
X169045669Y-133485712D01*
X168932553Y-133497841D01*
X168807823Y-133516714D01*
X168682414Y-133540618D01*
X168567259Y-133567843D01*
X168363275Y-133633020D01*
X168158249Y-133725615D01*
X167977566Y-133839117D01*
X167821106Y-133973648D01*
X167688750Y-134129330D01*
X167580377Y-134306287D01*
X167495867Y-134504640D01*
X167435100Y-134724513D01*
X167429120Y-134759571D01*
X167420767Y-134845699D01*
X167416079Y-134951831D01*
X167414964Y-135070214D01*
X167105119Y-135070214D01*
X167102462Y-135063046D01*
X167092349Y-135068359D01*
X167070990Y-135099208D01*
X167041385Y-135153439D01*
X167005135Y-135227317D01*
X166963838Y-135317110D01*
X166919095Y-135419081D01*
X166872506Y-135529498D01*
X166825669Y-135644626D01*
X166780185Y-135760731D01*
X166737653Y-135874079D01*
X166699673Y-135980936D01*
X166667845Y-136077567D01*
X166662030Y-136096242D01*
X166568053Y-136423415D01*
X166494052Y-136737528D01*
X166438750Y-137047011D01*
X166400873Y-137360292D01*
X166379147Y-137685803D01*
X166372296Y-138031972D01*
X166081516Y-138031972D01*
X166081515Y-138023944D01*
X166081836Y-137886640D01*
X166083066Y-137730633D01*
X166085629Y-137596757D01*
X166089978Y-137479349D01*
X166096564Y-137372749D01*
X166105839Y-137271294D01*
X166118253Y-137169325D01*
X166134260Y-137061180D01*
X166154310Y-136941197D01*
X166178856Y-136803716D01*
X166200909Y-136688593D01*
X166305149Y-136251152D01*
X166440296Y-135819877D01*
X166605608Y-135396386D01*
X166800341Y-134982296D01*
X167023752Y-134579223D01*
X167275097Y-134188785D01*
X167553634Y-133812598D01*
X167602844Y-133753298D01*
X167679445Y-133666676D01*
X167771485Y-133566819D01*
X167874472Y-133458294D01*
X167954589Y-133375842D01*
X170777016Y-133375842D01*
X170783044Y-133381297D01*
X170814459Y-133396243D01*
X170868165Y-133417265D01*
X170939010Y-133442387D01*
X171021840Y-133469637D01*
X171268995Y-133550869D01*
X171568534Y-133658036D01*
X171859473Y-133772883D01*
X172152819Y-133899800D01*
X172459579Y-134043178D01*
X172480495Y-134053241D01*
X172570173Y-134095632D01*
X172650188Y-134132282D01*
X172715754Y-134161077D01*
X172762087Y-134179904D01*
X172784402Y-134186649D01*
X172791526Y-134185298D01*
X172825788Y-134172888D01*
X172880299Y-134149585D01*
X172949231Y-134117943D01*
X173026755Y-134080513D01*
X173220590Y-133987416D01*
X173444977Y-133885458D01*
X173674447Y-133786714D01*
X173903532Y-133693345D01*
X174110079Y-133613925D01*
X175227588Y-133613925D01*
X175231887Y-133642602D01*
X175247485Y-133689827D01*
X175274839Y-133761175D01*
X175301086Y-133829358D01*
X175405012Y-134122058D01*
X175504385Y-134437710D01*
X175597252Y-134769031D01*
X175681660Y-135108739D01*
X175755657Y-135449551D01*
X175817290Y-135784184D01*
X175820540Y-135803821D01*
X175836216Y-135901425D01*
X175852351Y-136005959D01*
X175868158Y-136111903D01*
X175882852Y-136213736D01*
X175895647Y-136305938D01*
X175905760Y-136382988D01*
X175912403Y-136439366D01*
X175914792Y-136469551D01*
X175918084Y-136474940D01*
X175939746Y-136500712D01*
X175978962Y-136544192D01*
X176032590Y-136601972D01*
X176097486Y-136670644D01*
X176170508Y-136746801D01*
X176441243Y-137034176D01*
X176692238Y-137315750D01*
X176918268Y-137586267D01*
X176938979Y-137611846D01*
X176988874Y-137672479D01*
X177030294Y-137721419D01*
X177059401Y-137754183D01*
X177072362Y-137766291D01*
X177073100Y-137766154D01*
X177088121Y-137750546D01*
X177116945Y-137711847D01*
X177157007Y-137653957D01*
X177205741Y-137580776D01*
X177260585Y-137496204D01*
X177318972Y-137404139D01*
X177378339Y-137308483D01*
X177436121Y-137213135D01*
X177449295Y-137191100D01*
X177496449Y-137111385D01*
X177529115Y-137051989D01*
X177548807Y-137006971D01*
X177557035Y-136970392D01*
X177555311Y-136936311D01*
X177545148Y-136898788D01*
X177528056Y-136851883D01*
X177526037Y-136846267D01*
X177509965Y-136766554D01*
X177509780Y-136677213D01*
X177524497Y-136591250D01*
X177553126Y-136521675D01*
X177566730Y-136501318D01*
X177632765Y-136428800D01*
X177712907Y-136370853D01*
X177796285Y-136335787D01*
X177829201Y-136326605D01*
X177857064Y-136314511D01*
X177879432Y-136295639D01*
X177899359Y-136265226D01*
X177919899Y-136218511D01*
X177944108Y-136150733D01*
X177975040Y-136057130D01*
X177996519Y-135990095D01*
X178054264Y-135791067D01*
X178096687Y-135608310D01*
X178125229Y-135433570D01*
X178141329Y-135258595D01*
X178146429Y-135075135D01*
X178146378Y-135053502D01*
X178141303Y-134895068D01*
X178127004Y-134757440D01*
X178102166Y-134631408D01*
X178065477Y-134507762D01*
X178015663Y-134380644D01*
X177917666Y-134197305D01*
X177795663Y-134034731D01*
X177649429Y-133892744D01*
X177478738Y-133771167D01*
X177283367Y-133669824D01*
X177063090Y-133588538D01*
X176817682Y-133527131D01*
X176811952Y-133526012D01*
X176721558Y-133512609D01*
X176607157Y-133501564D01*
X176476212Y-133493101D01*
X176336185Y-133487447D01*
X176194540Y-133484827D01*
X176058737Y-133485466D01*
X175936241Y-133489590D01*
X175834514Y-133497424D01*
X175809442Y-133500349D01*
X175736259Y-133509965D01*
X175648423Y-133522548D01*
X175553678Y-133536883D01*
X175459770Y-133551755D01*
X175374445Y-133565949D01*
X175305448Y-133578251D01*
X175260525Y-133587446D01*
X175251043Y-133589922D01*
X175234126Y-133598223D01*
X175227588Y-133613925D01*
X174110079Y-133613925D01*
X174126760Y-133607511D01*
X174338662Y-133531375D01*
X174533767Y-133467096D01*
X174706606Y-133416837D01*
X174711269Y-133415565D01*
X174758959Y-133395794D01*
X174774842Y-133372082D01*
X174768648Y-133351738D01*
X174748444Y-133307142D01*
X174716806Y-133244327D01*
X174676413Y-133168235D01*
X174629946Y-133083809D01*
X174580084Y-132995991D01*
X174529507Y-132909724D01*
X174480895Y-132829949D01*
X174411270Y-132723336D01*
X174289613Y-132554931D01*
X174157519Y-132390566D01*
X174020549Y-132236697D01*
X173884263Y-132099779D01*
X173754221Y-131986269D01*
X173708325Y-131951001D01*
X173550926Y-131846470D01*
X173383678Y-131757556D01*
X173280640Y-131715302D01*
X173918181Y-131715302D01*
X173926553Y-131730129D01*
X173954007Y-131759013D01*
X173996144Y-131797160D01*
X174080936Y-131872902D01*
X174283267Y-132078799D01*
X174480019Y-132315174D01*
X174670383Y-132581087D01*
X174698091Y-132622879D01*
X174739525Y-132686669D01*
X174778428Y-132748764D01*
X174817728Y-132814176D01*
X174860354Y-132887915D01*
X174909234Y-132974992D01*
X174967297Y-133080418D01*
X175037471Y-133209204D01*
X175095216Y-133315514D01*
X175260156Y-133285073D01*
X175279980Y-133281417D01*
X175408793Y-133257991D01*
X175516407Y-133239508D01*
X175609488Y-133225383D01*
X175694697Y-133215029D01*
X175778699Y-133207863D01*
X175868157Y-133203298D01*
X175969735Y-133200750D01*
X176090096Y-133199632D01*
X176235904Y-133199360D01*
X176273468Y-133199360D01*
X176406495Y-133199641D01*
X176513538Y-133200578D01*
X176599507Y-133202441D01*
X176669312Y-133205499D01*
X176727862Y-133210024D01*
X176780066Y-133216285D01*
X176830834Y-133224553D01*
X176885075Y-133235098D01*
X176947219Y-133247348D01*
X177007406Y-133258170D01*
X177049323Y-133264474D01*
X177066403Y-133265169D01*
X177063940Y-133259112D01*
X177041599Y-133235296D01*
X176999761Y-133196811D01*
X176942032Y-133146759D01*
X176872016Y-133088240D01*
X176793319Y-133024355D01*
X176709545Y-132958205D01*
X176557399Y-132843500D01*
X176188452Y-132593677D01*
X175801876Y-132369649D01*
X175400150Y-132172573D01*
X174985756Y-132003606D01*
X174561171Y-131863904D01*
X174128876Y-131754624D01*
X174055251Y-131739132D01*
X173990459Y-131726175D01*
X173943107Y-131717453D01*
X173920153Y-131714310D01*
X173918181Y-131715302D01*
X173280640Y-131715302D01*
X173215061Y-131688409D01*
X173053553Y-131643183D01*
X173052363Y-131642940D01*
X172951342Y-131628429D01*
X172833930Y-131621083D01*
X172712043Y-131620923D01*
X172597603Y-131627968D01*
X172502526Y-131642240D01*
X172365576Y-131679477D01*
X172166822Y-131759927D01*
X171971403Y-131871160D01*
X171778588Y-132013614D01*
X171587648Y-132187724D01*
X171433795Y-132351881D01*
X171251743Y-132578118D01*
X171080803Y-132829330D01*
X171065781Y-132853452D01*
X171020844Y-132927662D01*
X170972866Y-133009340D01*
X170924631Y-133093480D01*
X170878922Y-133175073D01*
X170838523Y-133249113D01*
X170806217Y-133310593D01*
X170784787Y-133354505D01*
X170777016Y-133375842D01*
X167954589Y-133375842D01*
X167983910Y-133345667D01*
X168062287Y-133266750D01*
X168487012Y-133266750D01*
X168500060Y-133266938D01*
X168539011Y-133262224D01*
X168597159Y-133253091D01*
X168667851Y-133240507D01*
X168720725Y-133231323D01*
X168825262Y-133215757D01*
X168935425Y-133201871D01*
X169034657Y-133191862D01*
X169114545Y-133184977D01*
X169170924Y-133178614D01*
X169208527Y-133170947D01*
X169234035Y-133159990D01*
X169254130Y-133143758D01*
X169275492Y-133120263D01*
X169284431Y-133110434D01*
X169334306Y-133063543D01*
X169386406Y-133023571D01*
X169397167Y-133016660D01*
X169431163Y-132998714D01*
X169467827Y-132988364D01*
X169516960Y-132983617D01*
X169588363Y-132982478D01*
X169632205Y-132982737D01*
X169688257Y-132985380D01*
X169728405Y-132992828D01*
X169762892Y-133007435D01*
X169801963Y-133031555D01*
X169826006Y-133049350D01*
X169881136Y-133100851D01*
X169925546Y-133155347D01*
X169975035Y-133230062D01*
X170147221Y-133260719D01*
X170198209Y-133269316D01*
X170278506Y-133281148D01*
X170349340Y-133289676D01*
X170399684Y-133293469D01*
X170479962Y-133295562D01*
X170533951Y-133191201D01*
X170594615Y-133076224D01*
X170760802Y-132784660D01*
X170930442Y-132521540D01*
X171105457Y-132284191D01*
X171287770Y-132069937D01*
X171479301Y-131876108D01*
X171509875Y-131847093D01*
X171563014Y-131794679D01*
X171602687Y-131752775D01*
X171625471Y-131725086D01*
X171627940Y-131715316D01*
X171610631Y-131717185D01*
X171558301Y-131726440D01*
X171483742Y-131742148D01*
X171392588Y-131763004D01*
X171290471Y-131787698D01*
X171183024Y-131814926D01*
X171075882Y-131843380D01*
X171029555Y-131856191D01*
X170604964Y-131992004D01*
X170191210Y-132158036D01*
X169788334Y-132354266D01*
X169396378Y-132580672D01*
X169015383Y-132837231D01*
X168645393Y-133123922D01*
X168630013Y-133136706D01*
X168572113Y-133185844D01*
X168526077Y-133226514D01*
X168496259Y-133254792D01*
X168487012Y-133266750D01*
X168062287Y-133266750D01*
X168095304Y-133233505D01*
X168204162Y-133126377D01*
X168305987Y-133028847D01*
X168396285Y-132945485D01*
X168470563Y-132880856D01*
X168669894Y-132721608D01*
X169046352Y-132451694D01*
X169438781Y-132208376D01*
X169845282Y-131992623D01*
X170263954Y-131805407D01*
X170692898Y-131647700D01*
X171130215Y-131520474D01*
X171221037Y-131498651D01*
X171361648Y-131468016D01*
X171515502Y-131437339D01*
X171673732Y-131408234D01*
X171827472Y-131382315D01*
X171967855Y-131361196D01*
X172086012Y-131346492D01*
X172093622Y-131345741D01*
X172159470Y-131341388D01*
X172251340Y-131337806D01*
X172363973Y-131334998D01*
X172492113Y-131332969D01*
X172630502Y-131331724D01*
X172773881Y-131331268D01*
X172916994Y-131331604D01*
G37*
%TO.C,TFT DISPLAY*%
X182630000Y-106410000D02*
X179970000Y-106410000D01*
X182630000Y-88570000D02*
X182630000Y-106410000D01*
X182630000Y-88570000D02*
X179970000Y-88570000D01*
X182630000Y-87300000D02*
X182630000Y-85970000D01*
X182630000Y-85970000D02*
X181300000Y-85970000D01*
X179970000Y-88570000D02*
X179970000Y-106410000D01*
%TO.C,J5*%
X169285000Y-69490000D02*
X169285000Y-72150000D01*
X159065000Y-69490000D02*
X169285000Y-69490000D01*
X159065000Y-69490000D02*
X159065000Y-72150000D01*
X157795000Y-69490000D02*
X156465000Y-69490000D01*
X156465000Y-69490000D02*
X156465000Y-70820000D01*
X159065000Y-72150000D02*
X169285000Y-72150000D01*
%TO.C,C11*%
X146685000Y-113998748D02*
X146685000Y-114521252D01*
X145215000Y-113998748D02*
X145215000Y-114521252D01*
%TO.C,J4*%
X110570000Y-108950000D02*
X107910000Y-108950000D01*
X110570000Y-101270000D02*
X110570000Y-108950000D01*
X110570000Y-101270000D02*
X107910000Y-101270000D01*
X109240000Y-98670000D02*
X107910000Y-98670000D01*
X107910000Y-101270000D02*
X107910000Y-108950000D01*
X107910000Y-98670000D02*
X107910000Y-100000000D01*
%TD*%
M02*
