M48
; DRILL file {KiCad 7.0.10} date Tue Apr  2 20:17:48 2024
; FORMAT={-:-/ absolute / inch / decimal}
; #@! TF.CreationDate,2024-04-02T20:17:48+05:30
; #@! TF.GenerationSoftware,Kicad,Pcbnew,7.0.10
; #@! TF.FileFunction,MixedPlating,1,2
FMAT,2
INCH
; #@! TA.AperFunction,Plated,PTH,ViaDrill
T1C0.0118
; #@! TA.AperFunction,Plated,PTH,ViaDrill
T2C0.0197
; #@! TA.AperFunction,Plated,PTH,ViaDrill
T3C0.0236
; #@! TA.AperFunction,Plated,PTH,ComponentDrill
T4C0.0236
; #@! TA.AperFunction,Plated,PTH,ViaDrill
T5C0.0394
; #@! TA.AperFunction,Plated,PTH,ComponentDrill
T6C0.0394
; #@! TA.AperFunction,NonPlated,NPTH,ComponentDrill
T7C0.0236
; #@! TA.AperFunction,NonPlated,NPTH,ComponentDrill
T8C0.0866
%
G90
G05
T1
X5.2173Y-5.3953
T2
X5.4646Y-4.1028
X5.6819Y-4.2969
X5.7134Y-4.0654
X5.7508Y-4.3307
X5.7866Y-4.2059
X6.3906Y-3.3705
T3
X5.472Y-2.7638
X5.5323Y-4.3531
X5.611Y-3.7752
X5.6252Y-4.6555
X5.7913Y-3.9268
X5.8012Y-4.3382
X5.8665Y-3.8465
X5.8811Y-3.9161
X5.939Y-4.2004
X6.0505Y-3.8797
X6.1142Y-3.7402
X6.152Y-3.6433
T5
X5.3876Y-2.6386
X5.4896Y-2.6293
T6
X4.3008Y-3.937
X4.3008Y-4.037
X4.3008Y-4.137
X4.3008Y-4.237
X4.6803Y-4.7008
X4.6803Y-4.8008
X4.6803Y-4.9008
X4.6803Y-5.0008
X4.8175Y-5.5441
X4.9175Y-5.5441
X5.0175Y-5.5441
X5.1175Y-5.5441
X5.2175Y-5.5441
X5.3175Y-5.5441
X5.4175Y-5.5441
X6.2124Y-2.7882
X6.3124Y-2.7882
X6.4124Y-2.7882
X6.5124Y-2.7882
X6.6124Y-2.7882
X7.137Y-4.237
X7.137Y-4.337
X7.137Y-4.437
X7.137Y-4.537
X7.137Y-4.637
X7.137Y-4.737
X7.1378Y-3.437
X7.1378Y-3.537
X7.1378Y-3.637
X7.1378Y-3.737
X7.1378Y-3.837
X7.1378Y-3.937
X7.1378Y-4.037
X7.1378Y-4.137
T7
X5.0071Y-2.5612
X5.2347Y-2.5612
T8
X4.2213Y-2.5634
X4.2433Y-5.5067
X7.2079Y-5.511
X7.2409Y-2.5547
T4
G00X4.9506Y-2.4714
M15
G01X4.9506Y-2.4399
M16
G05
G00X4.9506Y-2.6415
M15
G01X4.9506Y-2.5982
M16
G05
G00X5.2911Y-2.4714
M15
G01X5.2911Y-2.4399
M16
G05
G00X5.2911Y-2.6415
M15
G01X5.2911Y-2.5982
M16
G05
M30
