%TF.GenerationSoftware,KiCad,Pcbnew,7.0.10*%
%TF.CreationDate,2024-04-02T20:17:41+05:30*%
%TF.ProjectId,blackpill-tft,626c6163-6b70-4696-9c6c-2d7466742e6b,rev?*%
%TF.SameCoordinates,Original*%
%TF.FileFunction,Soldermask,Bot*%
%TF.FilePolarity,Negative*%
%FSLAX46Y46*%
G04 Gerber Fmt 4.6, Leading zero omitted, Abs format (unit mm)*
G04 Created by KiCad (PCBNEW 7.0.10) date 2024-04-02 20:17:41*
%MOMM*%
%LPD*%
G01*
G04 APERTURE LIST*
G04 Aperture macros list*
%AMRoundRect*
0 Rectangle with rounded corners*
0 $1 Rounding radius*
0 $2 $3 $4 $5 $6 $7 $8 $9 X,Y pos of 4 corners*
0 Add a 4 corners polygon primitive as box body*
4,1,4,$2,$3,$4,$5,$6,$7,$8,$9,$2,$3,0*
0 Add four circle primitives for the rounded corners*
1,1,$1+$1,$2,$3*
1,1,$1+$1,$4,$5*
1,1,$1+$1,$6,$7*
1,1,$1+$1,$8,$9*
0 Add four rect primitives between the rounded corners*
20,1,$1+$1,$2,$3,$4,$5,0*
20,1,$1+$1,$4,$5,$6,$7,0*
20,1,$1+$1,$6,$7,$8,$9,0*
20,1,$1+$1,$8,$9,$2,$3,0*%
G04 Aperture macros list end*
%ADD10R,1.700000X1.700000*%
%ADD11O,1.700000X1.700000*%
%ADD12C,2.200000*%
%ADD13C,0.600000*%
%ADD14O,1.104000X2.204000*%
%ADD15O,1.104000X1.904000*%
%ADD16RoundRect,0.102000X-0.512652X-0.017678X-0.017678X-0.512652X0.512652X0.017678X0.017678X0.512652X0*%
%ADD17RoundRect,0.250000X-0.475000X0.250000X-0.475000X-0.250000X0.475000X-0.250000X0.475000X0.250000X0*%
G04 APERTURE END LIST*
D10*
%TO.C,J3*%
X118880000Y-119400000D03*
D11*
X118880000Y-121940000D03*
X118880000Y-124480000D03*
X118880000Y-127020000D03*
%TD*%
D12*
%TO.C,H3*%
X183080000Y-139980000D03*
%TD*%
%TO.C,H4*%
X107780000Y-139870000D03*
%TD*%
%TO.C,H2*%
X183920000Y-64890000D03*
%TD*%
D13*
%TO.C,J1*%
X132960200Y-65053800D03*
X127180200Y-65053800D03*
D14*
X134395200Y-66543800D03*
X125745200Y-66543800D03*
D15*
X134395200Y-62373800D03*
X125745200Y-62373800D03*
%TD*%
D12*
%TO.C,H1*%
X107220000Y-65110000D03*
%TD*%
D10*
%TO.C,J6*%
X122365000Y-140820000D03*
D11*
X124905000Y-140820000D03*
X127445000Y-140820000D03*
X129985000Y-140820000D03*
X132525000Y-140820000D03*
X135065000Y-140820000D03*
X137605000Y-140820000D03*
%TD*%
D16*
%TO.C,Y2*%
X143469150Y-111623744D03*
X144423744Y-110669150D03*
X145130850Y-111376256D03*
X144176256Y-112330850D03*
%TD*%
D17*
%TO.C,C10*%
X142420000Y-113420000D03*
X142420000Y-115320000D03*
%TD*%
D10*
%TO.C,J7*%
X181280000Y-107620000D03*
D11*
X181280000Y-110160000D03*
X181280000Y-112700000D03*
X181280000Y-115240000D03*
X181280000Y-117780000D03*
X181280000Y-120320000D03*
%TD*%
D10*
%TO.C,TFT DISPLAY*%
X181300000Y-87300000D03*
D11*
X181300000Y-89840000D03*
X181300000Y-92380000D03*
X181300000Y-94920000D03*
X181300000Y-97460000D03*
X181300000Y-100000000D03*
X181300000Y-102540000D03*
X181300000Y-105080000D03*
%TD*%
D10*
%TO.C,J5*%
X157795000Y-70820000D03*
D11*
X160335000Y-70820000D03*
X162875000Y-70820000D03*
X165415000Y-70820000D03*
X167955000Y-70820000D03*
%TD*%
D17*
%TO.C,C11*%
X145950000Y-113310000D03*
X145950000Y-115210000D03*
%TD*%
D10*
%TO.C,J4*%
X109240000Y-100000000D03*
D11*
X109240000Y-102540000D03*
X109240000Y-105080000D03*
X109240000Y-107620000D03*
%TD*%
M02*
